<svg width="40" height="40" viewBox="0 0 40 40" fill="none" xmlns="http://www.w3.org/2000/svg">
<path d="M20.2019 22.52C20.2019 22.52 33.2482 22.3924 35.2152 31.898L31.5044 32.9612L32.1318 37.0442C30.568 37.3267 28.9602 37.2467 27.4321 36.8103C26.0149 36.3939 24.697 35.694 23.5583 34.7531C22.4196 33.8122 21.4839 32.6498 20.8078 31.3364C20.1317 30.0231 19.7294 28.5861 19.6253 27.1127C19.5211 25.6392 19.7173 24.1599 20.2019 22.7645V22.52Z" fill="#FBB4D9"/>
<path d="M21.5205 19.564C21.5205 19.564 27.9001 8.21901 37.1292 11.2706L36.151 15.0133L40 16.5125C39.4609 18.0076 38.5882 19.3603 37.4482 20.4678C36.3827 21.493 35.1198 22.2906 33.7363 22.8122C32.3528 23.3338 30.8776 23.5684 29.4005 23.5018C27.9234 23.4351 26.4754 23.0686 25.1444 22.4246C23.8135 21.7805 22.6275 20.8724 21.6587 19.7554L21.5205 19.564Z" fill="#FBB4D9"/>
<path d="M19.3728 18.6709C19.3728 18.6709 10.0799 9.56938 15.4069 1.45667L18.7774 3.33865L21.2654 0C22.5825 0.901972 23.6741 2.09536 24.4552 3.48751C25.1683 4.78308 25.6108 6.20998 25.7558 7.68169C25.9009 9.15339 25.7455 10.6392 25.299 12.0491C24.8526 13.4589 24.1245 14.7634 23.1588 15.8834C22.1931 17.0034 21.01 17.9156 19.6812 18.5646L19.3728 18.6709Z" fill="#FBB4D9"/>
<path d="M17.6608 20.2019C17.6608 20.2019 6.45401 26.8048 0 19.564L2.69006 16.7888L0.0956938 13.5991C1.31098 12.579 2.7442 11.8514 4.28495 11.4725C5.72013 11.1182 7.21234 11.0593 8.67099 11.2993C10.1296 11.5393 11.5243 12.0733 12.7703 12.8688C14.0162 13.6643 15.0875 14.7048 15.9191 15.927C16.7506 17.1492 17.3251 18.5276 17.6077 19.9786L17.6608 20.2019Z" fill="#FBB4D9"/>
<path d="M18.0755 22.1903C18.0755 22.1903 21.5737 34.7261 12.9081 39.0855L10.9517 35.7788L7.15582 37.4375C6.4805 36.0021 6.14573 34.4302 6.17762 32.8442C6.2097 31.3658 6.54228 29.9095 7.15513 28.5637C7.76797 27.218 8.64826 26.0111 9.74242 25.0164C10.8366 24.0217 12.1217 23.2601 13.5196 22.7779C14.9174 22.2957 16.3988 22.103 17.8735 22.2115L18.0755 22.1903Z" fill="#FBB4D9"/>
</svg>
