<svg width="343" height="373" viewBox="0 0 343 373" fill="none" xmlns="http://www.w3.org/2000/svg">
<path d="M-51 0C-21.6638 8.45115 7.67233 16.9994 31.1801 34.096C54.5908 51.2897 72.173 77.1289 96.0694 88.5914C120.063 100.054 150.468 97.1396 180.969 103.162C211.471 109.088 242.167 123.95 257.03 148.332C271.892 172.714 270.921 206.713 280.732 234.301C290.446 261.888 310.942 283.065 323.085 308.613C335.227 334.16 339.113 364.079 342.998 393.998H-51V0Z" fill="#FDDFDF"/>
<path d="M-51 78.7803C-27.4922 85.58 -4.08156 92.3798 14.6664 106.077C33.5115 119.773 47.4996 140.464 66.6361 149.595C85.8697 158.823 110.155 156.492 134.537 161.252C159.016 166.109 183.592 177.96 195.443 197.485C207.294 217.01 206.517 244.112 214.385 266.163C222.157 288.31 238.573 305.213 248.287 325.709C258.001 346.109 261.11 370.102 264.218 393.998H-51V78.7803Z" fill="#FEE8E8"/>
<path d="M-51 157.56C-33.4177 162.709 -15.7383 167.76 -1.75021 178.057C12.335 188.354 22.9233 203.896 37.2999 210.696C51.6766 217.593 69.8417 215.844 88.2011 219.438C106.463 223.033 124.92 231.969 133.857 246.638C142.794 261.208 142.211 281.608 148.039 298.122C153.867 314.732 166.107 327.458 173.49 342.806C180.775 358.154 183.106 376.027 185.438 393.998H-51V157.56Z" fill="#FFF1F1"/>
<path d="M-51 236.438C-39.2461 239.741 -27.4922 243.141 -18.1668 250.037C-8.74427 256.934 -1.75021 267.231 7.86661 271.797C17.3863 276.362 29.5287 275.294 41.7683 277.625C54.0079 280.054 66.2475 285.979 72.2702 295.693C78.1957 305.504 77.8071 319.104 81.6927 330.08C85.5783 341.154 93.738 349.606 98.595 359.805C103.549 370.102 105.103 382.05 106.56 393.998H-51V236.438Z" fill="#FFFAFA"/>
<path d="M-51 315.218C-45.1717 316.869 -39.2461 318.618 -34.5834 322.018C-29.9207 325.418 -26.3266 330.663 -21.5667 332.897C-16.8069 335.229 -10.6871 334.646 -4.56729 335.812C1.45536 336.977 7.6723 339.989 10.5865 344.846C13.5978 349.703 13.4035 356.502 15.3463 362.039C17.2891 367.576 21.369 371.85 23.7975 376.902C26.226 382.05 27.0031 387.976 27.7802 393.998H-51V315.218Z" fill="white"/>
</svg>
