<svg width="304" height="248" viewBox="0 0 304 248" fill="none" xmlns="http://www.w3.org/2000/svg">
<path d="M303.997 246.073C279.563 248.464 255.054 250.855 236.523 238.526C218.066 226.122 205.513 198.923 186.608 186.743C167.778 174.489 142.522 177.179 125.112 167.316C107.702 157.527 98.0628 135.185 87.8259 115.384C77.589 95.5824 66.6796 78.3216 61.6732 59.7158C56.5921 41.11 57.414 21.0098 48.2979 1.35792C39.1818 -18.294 20.053 -37.647 0.924164 -57H303.997V246.073Z" fill="#FDDFDF"/>
<path d="M303.997 185.473C284.42 187.416 264.842 189.284 250.047 179.421C235.253 169.483 225.24 147.738 210.071 137.95C194.977 128.161 174.802 130.328 160.904 122.482C146.931 114.637 139.309 96.7033 131.09 80.9369C122.871 65.0958 114.128 51.2722 110.093 36.4026C106.058 21.4581 106.731 5.46763 99.4078 -10.2987C92.1598 -26.0651 76.8418 -41.5325 61.5237 -57H303.997V185.473Z" fill="#FEE8E8"/>
<path d="M303.997 124.873C289.351 126.293 274.631 127.713 263.497 120.315C252.439 112.843 244.892 96.5538 233.609 89.2311C222.251 81.9083 207.082 83.4775 196.621 77.5744C186.235 71.6714 180.481 58.2961 174.279 46.4153C168.152 34.5345 161.577 24.2229 158.588 13.0146C155.524 1.88097 156.047 -10.1493 150.592 -21.9554C145.063 -33.7614 133.63 -45.4181 122.123 -57H303.997V124.873Z" fill="#FFF1F1"/>
<path d="M303.997 64.1991C294.208 65.1705 284.42 66.1419 277.022 61.2103C269.625 56.2786 264.618 45.3692 257.071 40.5123C249.524 35.5806 239.437 36.6267 232.413 32.7412C225.464 28.7809 221.653 19.889 217.543 11.9684C213.434 4.04791 209.1 -2.82652 207.082 -10.2987C205.065 -17.7709 205.364 -25.7662 201.702 -33.6867C198.041 -41.5325 190.419 -49.2289 182.798 -57H303.997V64.1991Z" fill="#FFFAFA"/>
<path d="M303.997 3.59958C299.14 4.12263 294.208 4.57096 290.472 2.10514C286.811 -0.36069 284.27 -5.8154 280.534 -8.28123C276.723 -10.6723 271.717 -10.1493 268.205 -12.1668C264.768 -14.1095 262.825 -18.5929 260.733 -22.5531C258.715 -26.5134 256.548 -29.9506 255.502 -33.6867C254.531 -37.3481 254.68 -41.3831 252.887 -45.3434C251.019 -49.2289 247.208 -53.1145 243.397 -57H303.997V3.59958Z" fill="white"/>
</svg>
