<svg width="174" height="184" viewBox="0 0 174 184" fill="none" xmlns="http://www.w3.org/2000/svg">
<path d="M63.3645 59.9108V59.7204L62.972 59.9108H63.3587M68.323 56.9785C68.6635 56.153 69.033 55.2064 69.362 54.3751C70.4472 51.6275 70.9436 50.3807 72.1789 48.978C73.1775 47.8235 74.6322 46.669 77.2874 44.4755C79.1692 42.9401 81.6514 40.9082 84.8377 38.1952L85.5131 38.986C82.1593 41.8433 79.7407 43.8002 77.9513 45.2837C75.3364 47.4252 73.9106 48.597 72.9639 49.6649C71.8499 50.9348 71.3765 52.1239 70.3317 54.7619C70.1124 55.3391 69.8642 55.9568 69.5005 56.8515C71.3975 54.8124 73.5288 53.0046 75.8501 51.4659C80.1886 48.6769 84.9207 46.5541 89.8885 45.1682L90.1829 46.1726C85.3131 47.5223 80.6755 49.6008 76.4274 52.3375C73.7797 54.0877 71.3883 56.1975 69.3216 58.6063C71.5382 59.2932 75.0651 61.8561 78.3842 64.852C82.4249 68.5001 86.2173 72.8179 86.9908 75.1557L86.0037 75.4789C85.288 73.3201 81.6167 69.1755 77.6857 65.6313C73.9914 62.2948 70.1182 59.5183 68.3403 59.4664V58.9469L67.9362 58.6121C68.2941 58.1791 68.6693 57.7404 69.0907 57.296L68.323 56.9785ZM64.4497 53.3708C61.2201 47.4187 58.5569 41.1764 56.4954 34.726C54.2748 27.7683 52.6072 20.6462 51.5081 13.426L52.5413 13.2643C53.627 20.4305 55.2812 27.499 57.4882 34.4028C59.5283 40.7939 62.1664 46.9785 65.3675 52.8743L64.4497 53.3708ZM89.5999 54.2482C96.775 55.0736 104.724 56.9612 109.105 61.1346C118.398 69.9836 116.609 77.0663 114.415 80.6048C112.222 84.1432 111.316 82.8156 109.105 82.8156C106.894 82.8156 106.894 83.6988 108.66 85.9154C110.427 88.132 98.4836 96.5307 85.6516 92.1091C76.4158 88.9285 69.489 78.5036 65.9274 69.7643C64.2708 78.8904 58.6369 94.1929 43.6172 101.403C43.6172 101.403 29.9021 108.035 19.7254 101.841C19.7254 101.841 20.1641 96.5365 22.8194 94.3372C22.8194 94.3372 18.8365 95.6649 15.3153 94.3372C11.7942 93.0096 14.4321 83.2774 27.7028 72.6562C28.3551 72.1367 29.0189 71.6403 29.677 71.1612C23.2696 72.131 15.8233 72.0848 10.0047 68.6733C-2.82724 61.1692 -0.616426 49.2031 2.03886 49.6245C4.69415 50.0459 5.13862 48.2968 3.36651 45.1971C1.59439 42.0973 24.6088 30.1543 38.324 35.4649C40.7001 36.3964 43.0139 37.48 45.2508 38.7089C43.0169 35.3436 41.2736 31.8802 40.5059 28.5323C43.7673 30.4487 46.8209 32.5729 49.0144 34.8819C56.4434 42.6688 57.3843 44.4986 59.7741 49.1281C60.2647 50.0805 60.8189 51.1542 61.5058 52.4241C58.3682 50.0308 54.9436 48.0393 51.3118 46.4959C44.1656 43.3961 36.6038 41.878 32.4477 42.9112L32.6959 43.9272C36.6442 42.9632 43.9405 44.4351 50.902 47.4541C55.4102 49.4109 59.7568 52.0142 62.9431 55.0217C63.1336 55.3565 63.3299 55.7086 63.5204 56.0665L63.809 55.8991C64.1553 56.2627 64.4786 56.6264 64.7903 56.9958C64.2517 56.7431 63.7007 56.5177 63.1394 56.3204C62.104 55.0872 60.8665 54.0391 59.4797 53.2207C56.8203 51.5931 53.9414 50.3548 50.9308 49.5437C46.7255 48.5532 42.4127 48.0936 38.0931 48.1756C34.3757 48.2449 30.7391 48.7875 27.8933 50.0459L28.3089 50.9983C31.0219 49.7977 34.52 49.2666 38.1219 49.2147C42.3439 49.1495 46.5575 49.611 50.6653 50.5885C53.5668 51.3712 56.3423 52.5626 58.9082 54.1269C59.766 54.6472 60.572 55.2483 61.3153 55.9221C57.0602 55.1839 52.7209 55.0634 48.4314 55.5643C43.1249 56.1275 37.9146 57.3811 32.9326 59.2932C32.8564 59.3088 32.7779 59.3088 32.7017 59.2932H32.5747L32.4996 60.3322H32.6093C32.832 60.3759 33.062 60.364 33.2789 60.2976C38.1736 58.4193 43.2928 57.189 48.5064 56.6379C53.1263 56.079 57.8067 56.2838 62.3601 57.244L62.4813 57.2729C62.6957 57.5783 62.8739 57.9076 63.0124 58.2542L63.9879 57.8847V57.8328C64.2304 57.9367 64.4612 58.0464 64.6748 58.1445C65.3906 58.4735 65.9621 58.7217 66.2795 58.6525C66.3586 58.6422 66.4342 58.6136 66.5003 58.569C66.5665 58.5244 66.6213 58.465 66.6605 58.3956C66.6997 58.3261 66.7222 58.2485 66.7262 58.1689C66.7302 58.0892 66.7156 58.0097 66.6836 57.9367L66.2969 58.0406L66.6548 57.7924C65.8072 56.5791 64.8403 55.4536 63.7686 54.4329C62.4178 52.0431 61.4596 50.219 60.6919 48.7009C58.256 43.9791 57.292 42.1089 49.7648 34.2123C47.375 31.7071 43.9924 29.3923 40.4713 27.3489L40.2404 27.2219C40.1711 26.7313 40.1192 26.2522 40.0903 25.7731C39.2014 10.2858 44.5119 6.30287 48.4949 6.30287C52.4778 6.30287 54.2672 8.06921 54.2672 8.06921L54.7059 6.30287C54.7059 6.30287 54.2672 -2.99065 64.4439 0.992288C71.6767 3.82075 77.1431 8.66954 78.8749 18.5461C76.5137 22.4466 74.4268 26.5067 72.6291 30.6969C70.3711 35.9128 68.6816 41.3567 67.5899 46.9346C67.4802 44.2158 67.3128 41.243 67.105 38.3741C66.5797 30.9971 65.7312 24.2203 65.0847 23.9432L64.6921 24.9072C64.9577 25.0169 65.5638 31.3953 66.066 38.4319C66.4931 44.4351 66.776 50.8771 66.6432 54.3982C66.6432 54.7099 66.6028 55.0217 66.5913 55.3276V55.3622H67.1108L67.6303 55.4026C67.6303 55.0851 67.6765 54.733 67.688 54.3521C68.2133 46.3169 70.4703 38.3626 73.5931 31.049C75.2103 27.2918 77.0591 23.6386 79.1288 20.1104C79.5628 24.0664 79.557 28.0583 79.1115 32.013C80.0367 31.0338 81.0301 30.1214 82.0843 29.2827C94.9163 19.106 108.193 15.123 110.404 10.2338C110.404 10.2338 111.731 10.6725 110.842 13.7723C110.842 13.7723 113.059 7.57856 113.942 13.7723C114.825 19.9661 119.253 30.1427 109.959 39.8807C104.625 45.5088 96.5152 50.5192 89.571 54.2712L89.5999 54.2482ZM61.1479 60.6959C59.4162 61.7696 56.3338 64.8809 54.3192 68.1076C52.905 70.3704 52.0103 72.662 52.524 74.2494L51.5254 74.5669C50.9135 72.6389 51.8717 70.0529 53.4303 67.5592C55.5256 64.1997 58.7466 60.9499 60.5995 59.8069L61.1479 60.6959Z" fill="#FBE9E9"/>
<path d="M40.4597 28.5496L39.8825 28.2263C36.4191 26.2233 32.7017 24.4743 29.5615 23.0716C29.5083 23.0597 29.4531 23.0597 29.3999 23.0716C29.3364 23.0758 29.2749 23.0956 29.2209 23.1293L28.6956 22.2288C28.8897 22.1162 29.1068 22.0491 29.3306 22.0326C29.5561 22.0163 29.7821 22.056 29.9887 22.148C33.0769 23.5334 36.7077 25.2478 40.1711 27.2277C40.2404 27.6722 40.327 28.1282 40.4309 28.5784M78.7825 18.5518C81.3515 14.2938 84.2463 10.241 87.441 6.42986L88.2376 7.10522C84.8209 11.2032 81.7509 15.5784 79.0596 20.1854C78.9903 19.5966 78.8806 19.0598 78.8113 18.5345L78.7825 18.5518ZM84.0757 138.046L84.197 137.976L83.891 137.78L84.0757 138.046ZM88.3762 140.308C89.1208 140.187 89.9693 140.037 90.6851 139.904C93.1441 139.466 94.2524 139.269 95.811 139.535C97.6786 139.96 99.5132 140.52 101.3 141.209C103.24 141.878 105.791 142.762 109.151 143.847L108.88 144.678C105.347 143.524 102.882 142.687 101.012 142.04C99.2687 141.369 97.4806 140.822 95.6609 140.401C94.2582 140.164 93.1961 140.355 90.841 140.77L88.9707 141.099C91.2752 141.558 93.5171 142.288 95.6493 143.275C99.5708 145.153 103.188 147.608 106.38 150.56L105.803 151.212C102.675 148.318 99.1296 145.911 95.2857 144.072C92.8573 142.952 90.2852 142.175 87.6431 141.763C88.1337 143.656 87.8509 147.322 87.1755 150.999C86.3443 155.513 84.9243 160.148 83.5909 161.735L82.9213 161.158C84.1566 159.686 85.5015 155.213 86.3039 150.826C87.0658 146.698 87.3429 142.692 86.5925 141.394L86.9735 141.174L87.0312 140.741C87.5045 140.805 87.9836 140.88 88.4801 140.966L88.3762 140.308ZM89.2247 135.921C92.0646 130.967 95.3657 126.292 99.0839 121.958C103.095 117.287 107.466 112.939 112.158 108.953L112.736 109.622C108.079 113.577 103.742 117.893 99.765 122.529C96.0833 126.83 92.8152 131.469 90.004 136.383L89.2247 135.921ZM99.7246 154.353C102.305 159.865 104.47 166.405 103.419 171.393C101.179 181.979 95.3376 183.844 91.7992 183.821C88.2607 183.797 88.8379 182.579 87.8624 180.992C86.8869 179.405 86.2462 179.797 85.4438 182.043C84.6414 184.288 73.3218 179.445 70.8108 168.281C69.0156 160.258 73.4026 150.635 78.1129 144.239C70.8282 147.091 57.3612 149.821 45.5394 142.231C45.5394 142.231 34.7047 135.304 34.647 125.289C34.647 125.289 38.6472 123.251 41.4122 124.18C41.4122 124.18 38.6992 121.912 38.0815 118.783C37.4639 115.655 45.626 113.248 59.1218 118.073C59.7856 118.31 60.4321 118.564 61.0671 118.829C57.5344 114.656 54.273 109.293 54.1402 103.613C53.8574 91.0759 63.4107 87.3758 64.265 89.4769C65.1193 91.5781 66.5739 91.1105 68.0286 88.4667C69.4832 85.823 88.2319 97.0503 90.4831 109.247C90.864 111.364 91.1127 113.502 91.2277 115.649C92.4803 112.727 94.239 110.05 96.4228 107.741C96.5586 110.734 96.2887 113.732 95.6205 116.653C93.3115 125.433 92.4284 126.916 90.1656 130.68C89.698 131.454 89.1727 132.325 88.5666 133.382C88.8934 130.072 88.8062 126.735 88.3069 123.447C87.366 116.942 85.0917 110.858 82.5345 108.324L81.9169 108.953C84.3528 111.354 86.5348 117.242 87.441 123.574C88.0835 127.548 88.0503 131.601 87.3429 135.563L86.858 136.452L87.1005 136.585C86.9966 136.995 86.8811 137.388 86.7484 137.774C86.6938 137.276 86.6129 136.781 86.5059 136.291C86.9255 135.002 87.1208 133.651 87.0832 132.296C87.07 129.669 86.6812 127.056 85.9287 124.538C84.7888 121.086 83.222 117.789 81.2646 114.725C79.5675 112.093 77.5703 109.721 75.4057 108.237L74.9092 108.959C76.97 110.373 78.8864 112.659 80.5257 115.199C82.4424 118.199 83.9762 121.428 85.0917 124.81C85.8195 127.245 86.1928 129.772 86.2 132.314C86.2021 133.16 86.1268 134.004 85.9749 134.836C84.6204 131.457 82.7872 128.29 80.5315 125.433C77.7767 121.874 74.569 118.689 70.9898 115.961C70.9476 115.913 70.9143 115.858 70.8917 115.799L70.8455 115.712L70.0662 116.116L70.1066 116.203C70.185 116.386 70.3081 116.547 70.4645 116.671C73.9809 119.351 77.1323 122.479 79.8388 125.976C82.2786 129.04 84.1993 132.484 85.5246 136.17V136.268C85.4039 136.56 85.2468 136.835 85.057 137.087L85.7555 137.624L85.7844 137.584C85.7844 137.797 85.8421 138.011 85.8652 138.213C85.8604 138.693 85.9797 139.166 86.2115 139.587C86.2518 139.641 86.3041 139.684 86.3643 139.714C86.4244 139.744 86.4907 139.76 86.5579 139.76C86.6251 139.76 86.6914 139.744 86.7515 139.714C86.8116 139.684 86.8639 139.641 86.9042 139.587L86.656 139.356L86.9908 139.506C87.4994 138.359 87.8863 137.161 88.1453 135.933C89.2651 133.907 90.154 132.429 90.8987 131.194C93.2076 127.349 94.1197 125.837 96.4575 116.936C97.1963 114.113 97.3695 110.679 97.2656 107.227V107.008C97.5831 106.742 97.9063 106.488 98.2411 106.257C108.96 98.7531 114.167 100.814 115.933 103.671C117.7 106.528 117.209 108.583 117.209 108.583L118.675 108.116C118.675 108.116 125.146 103.683 126.791 112.734C127.946 119.176 126.895 125.225 120.586 130.853C116.743 130.889 112.907 131.19 109.105 131.754C104.372 132.44 99.7268 133.636 95.251 135.321C97.1502 134.045 99.2051 132.608 101.179 131.188C106.236 127.546 110.721 123.938 110.629 123.355L109.757 123.505C109.797 123.742 105.491 126.997 100.666 130.472C96.5441 133.439 92.0474 136.493 89.4614 137.976C89.2247 138.098 88.9996 138.225 88.7687 138.352L88.9823 138.738L89.1843 139.125C89.421 139.004 89.6865 138.86 89.9693 138.698C95.9611 135.523 102.669 133.624 109.295 132.625C112.706 132.119 116.146 131.828 119.593 131.754C116.965 133.828 114.115 135.605 111.096 137.053C112.209 137.281 113.305 137.588 114.375 137.971C127.351 142.675 136.091 150.433 140.558 149.867C140.558 149.867 140.83 151.022 138.215 151.755C138.215 151.755 143.641 150.601 139.589 153.977C135.536 157.354 130.191 165.031 119.091 162.676C112.678 161.274 105.497 157.672 99.7304 154.353H99.7246ZM82.5057 136.793C80.9587 136.014 77.3683 135.194 74.1646 135.171C71.9134 135.171 69.8757 135.54 68.9695 136.603L68.3056 136.025C69.4139 134.732 71.6998 134.294 74.1761 134.294C77.5126 134.294 81.2704 135.183 82.9097 136.025L82.5057 136.793Z" fill="#FBE9E9"/>
<path d="M96.4344 107.735V107.198C96.3305 103.81 95.9495 100.387 95.5686 97.5121C95.5615 97.4662 95.5437 97.4227 95.5166 97.3851C95.4833 97.3429 95.4421 97.3076 95.3954 97.2812L95.8052 96.5077C95.9746 96.5931 96.121 96.7178 96.2324 96.8713C96.3441 97.0265 96.4155 97.207 96.4402 97.3966C96.8154 100.225 97.1906 103.59 97.3003 106.95C97.0117 107.198 96.723 107.458 96.446 107.735M120.621 130.824C124.811 130.777 128.998 131.051 133.147 131.644L133.02 132.51C128.564 131.874 124.064 131.61 119.564 131.719C119.922 131.413 120.269 131.113 120.609 130.813L120.621 130.824Z" fill="#FBE9E9"/>
<path d="M130.589 94.47V94.3546L130.838 94.5047L130.584 94.47M127.455 92.2303C127.282 91.6531 127.086 91.0066 126.918 90.4409C126.341 88.5476 126.099 87.6875 125.354 86.6831C124.391 85.5115 123.343 84.4119 122.22 83.3928C121.065 82.2384 119.53 80.7664 117.567 78.775L117.071 79.2656C119.137 81.3552 120.615 82.7983 121.735 83.8835C122.831 84.8753 123.854 85.946 124.794 87.0872C125.464 87.9934 125.706 88.8189 126.249 90.6256C126.364 91.0066 126.491 91.4511 126.682 92.0629C125.537 90.5977 124.223 89.2724 122.768 88.1146C120.047 86.0039 117.023 84.3166 113.798 83.11L113.544 83.7565C116.702 84.9417 119.666 86.5937 122.335 88.6572C123.992 89.977 125.458 91.5193 126.693 93.2405C125.181 93.5695 122.687 95.0703 120.303 96.8656C117.417 99.0533 114.629 101.709 113.982 103.215L114.617 103.492C115.195 102.095 117.902 99.5497 120.725 97.4197C123.374 95.4225 126.11 93.8004 127.293 93.8697V93.5234L127.576 93.3271C127.368 93.0154 127.138 92.6979 126.901 92.3804L127.455 92.2303ZM130.26 90.0715C132.755 86.3002 134.89 82.3037 136.639 78.1342C138.516 73.6421 140.039 69.0101 141.193 64.2805L140.518 64.1131C139.385 68.8093 137.883 73.4088 136.027 77.8687C134.286 81.9979 132.16 85.954 129.677 89.6847L130.26 90.0715ZM113.521 89.1883C108.701 89.3211 103.304 90.1119 100.146 92.6517C93.4558 97.9969 94.2178 102.805 95.4819 105.287C96.7461 107.77 97.4157 106.938 98.8819 107.065C100.348 107.192 100.302 107.787 98.9973 109.155C97.6928 110.523 105.145 116.809 113.936 114.61C120.251 113.034 125.481 106.528 128.367 100.906C128.944 107.071 131.79 117.571 141.355 123.239C141.355 123.239 150.089 128.435 157.217 124.925C157.217 124.925 157.217 121.369 155.595 119.73C155.595 119.73 158.17 120.844 160.6 120.169C163.03 119.493 161.83 112.867 153.621 105.033C153.217 104.647 152.813 104.277 152.397 103.925C156.606 104.941 161.558 105.345 165.622 103.417C174.592 99.1629 173.819 91.0874 172.029 91.226C170.24 91.3645 170.044 90.1638 171.4 88.207C172.757 86.2502 158.158 76.9682 148.726 79.6985C147.093 80.1744 145.49 80.7528 143.929 81.4302C145.554 79.5044 146.825 77.3057 147.681 74.9363C145.515 75.9067 143.488 77.1628 141.655 78.671C136.258 83.4217 135.525 84.582 133.672 87.5201C133.285 88.1262 132.858 88.8016 132.327 89.6097C134.553 88.2029 136.946 87.0783 139.45 86.2617C144.38 84.6166 149.5 84.0624 152.201 84.9745L151.976 85.6383C149.407 84.7667 144.472 85.3208 139.669 86.9255C136.628 87.8806 133.771 89.3444 131.219 91.2548C131.074 91.4684 130.924 91.6877 130.763 91.9129L130.578 91.7859C130.33 92.0052 130.093 92.2303 129.862 92.4612C130.24 92.3196 130.625 92.2001 131.017 92.1034C131.779 91.346 132.663 90.7217 133.632 90.2562C135.494 89.3292 137.481 88.676 139.531 88.3167C142.377 87.8959 145.264 87.8319 148.126 88.1262C150.45 88.3064 152.717 88.9316 154.805 89.9676L154.47 90.5794C152.463 89.5963 150.286 89.0084 148.057 88.8477C145.253 88.5576 142.423 88.6197 139.635 89.0325C137.659 89.3808 135.744 90.0127 133.949 90.9085C133.351 91.206 132.781 91.5577 132.246 91.959C135.117 91.7203 138.008 91.8933 140.83 92.4728C144.325 93.1587 147.717 94.2958 150.92 95.8554C150.971 95.8665 151.024 95.8665 151.076 95.8554H151.156V96.5538H151.035C150.876 96.5653 150.717 96.5354 150.573 96.4673C147.43 94.9296 144.097 93.8117 140.662 93.1424C137.626 92.504 134.506 92.3675 131.426 92.7383H131.346C131.182 92.9251 131.044 93.1328 130.936 93.356L130.307 93.0558V93.0212L129.833 93.1886C129.494 93.3605 129.117 93.4439 128.737 93.431C128.685 93.4188 128.636 93.3948 128.595 93.3609C128.554 93.327 128.522 93.2841 128.5 93.2355C128.478 93.187 128.468 93.134 128.47 93.0808C128.472 93.0276 128.486 92.9756 128.511 92.9288L128.76 93.0212L128.535 92.8364C129.172 92.0785 129.886 91.388 130.665 90.7757C131.698 89.2633 132.431 88.1031 133.043 87.1391C134.936 84.1433 135.686 82.9599 141.124 78.1458C143.12 76.5002 145.334 75.1402 147.705 74.1051L147.86 74.0301C147.939 73.716 148 73.3981 148.045 73.0776C149.54 62.8317 146.238 59.8762 143.595 59.6396C140.951 59.4029 139.664 60.4823 139.664 60.4823L139.473 59.2817C139.473 59.2817 140.31 53.1283 133.308 55.1833C128.367 56.6841 124.482 59.5934 122.751 66.07C124.099 68.7995 125.256 71.6193 126.214 74.5092C127.413 78.1081 128.22 81.8258 128.621 85.5979C128.852 83.8027 129.135 81.8343 129.441 79.9352C130.22 75.0633 131.172 70.607 131.623 70.4685L131.825 71.1381C131.646 71.1901 130.872 75.3981 130.128 80.0449C129.493 84.0163 128.933 88.282 128.817 90.6314V91.2548H128.119V90.5506C128.14 85.1678 127.258 79.8195 125.51 74.7285C124.658 72.1369 123.644 69.6016 122.474 67.1379C121.94 69.7331 121.696 72.3796 121.746 75.0287C121.186 74.3259 120.579 73.6625 119.928 73.043C111.991 65.5389 103.39 62.1044 102.207 58.7391C102.207 58.7391 101.295 58.9584 101.705 61.048C101.705 61.048 100.596 56.7995 99.6438 60.8691C98.6914 64.9386 95.1587 71.4498 100.798 78.4632C103.996 82.4866 109.099 86.2733 113.515 89.1883H113.521ZM132.061 95.1338C133.756 96.6339 135.151 98.4419 136.171 100.462C136.979 102.049 137.436 103.619 137.008 104.652L137.649 104.918C138.169 103.671 137.684 101.899 136.789 100.144C135.719 98.0302 134.255 96.1397 132.477 94.5739L132.061 95.1338Z" fill="#FBE9E9"/>
<path d="M147.647 74.9536L148.028 74.7747C150.464 73.6202 153.027 72.6966 155.191 71.9462C155.227 71.9374 155.265 71.9374 155.301 71.9462C155.342 71.9531 155.382 71.9688 155.416 71.9924L155.821 71.4152C155.698 71.3289 155.558 71.2716 155.411 71.2478C155.262 71.2242 155.11 71.2361 154.966 71.2824C152.83 72.027 150.314 72.9564 147.895 74.0647C147.826 74.3591 147.739 74.6419 147.647 74.9479M122.751 66.07C121.3 63.0861 119.619 60.2201 117.723 57.498L117.146 57.8963C119.177 60.8224 120.963 63.9115 122.485 67.1321C122.549 66.7569 122.635 66.399 122.751 66.07ZM8.41155 175.982C9.17928 175.982 30.9757 164.685 31.9397 163.721C34.6989 160.962 39.236 158.561 43.4845 154.185C49.2568 148.199 56.7609 145.088 58.66 135.881C59.3989 132.239 62.5852 139.673 59.116 145.325C55.4448 151.316 40.2519 164.997 33.6022 168.847C24.0604 174.365 25.5209 173.292 15.6501 176.888C8.28456 179.56 2.68536 191.584 2.68536 176.611C5.3926 176.611 6.48935 175.953 8.41732 175.982" fill="#FBE9E9"/>
</svg>
