<svg width="69" height="81" viewBox="0 0 69 81" fill="none" xmlns="http://www.w3.org/2000/svg">
<path d="M18.3209 7.2281C12.1344 13.4146 9.92174 22.0675 11.6726 30.02C12.6822 34.6117 14.9898 38.8165 18.3209 42.1341L35.7739 59.5871L53.2269 42.1341C56.6779 38.6831 58.8957 34.4607 59.8752 30.02C61.6311 22.0675 59.4134 13.4146 53.2269 7.2281C43.5894 -2.40937 27.9584 -2.40937 18.3209 7.2281ZM50.7198 20.8647C52.019 25.9651 50.6742 31.5984 46.6801 35.5873C40.6561 41.6114 30.8867 41.6114 24.8626 35.5873C20.8736 31.5984 19.5237 25.9651 20.8229 20.8647C21.4826 18.2663 22.8275 15.8049 24.8626 13.7698C26.8977 11.7347 29.354 10.3898 31.9575 9.73009C34.4616 9.09063 37.0862 9.09063 39.5903 9.73009C42.2766 10.4114 44.7284 11.8073 46.6852 13.7698C48.7152 15.8049 50.0601 18.2663 50.7198 20.8647Z" fill="#3E7366"/>
<path d="M26.517 24.6811C26.517 25.8967 26.7564 27.1004 27.2216 28.2235C27.6868 29.3466 28.3687 30.3671 29.2282 31.2267C30.0878 32.0862 31.1083 32.7681 32.2314 33.2333C33.3545 33.6985 34.5582 33.9379 35.7738 33.9379C36.9894 33.9379 38.1932 33.6985 39.3162 33.2333C40.4393 32.7681 41.4598 32.0862 42.3194 31.2267C43.179 30.3671 43.8608 29.3466 44.326 28.2235C44.7912 27.1004 45.0307 25.8967 45.0307 24.6811C45.0307 23.4655 44.7912 22.2617 44.326 21.1387C43.8608 20.0156 43.179 18.9951 42.3194 18.1355C41.4598 17.2759 40.4393 16.5941 39.3162 16.1289C38.1932 15.6637 36.9894 15.4243 35.7738 15.4243C34.5582 15.4243 33.3545 15.6637 32.2314 16.1289C31.1083 16.5941 30.0878 17.2759 29.2282 18.1355C28.3687 18.9951 27.6868 20.0156 27.2216 21.1387C26.7564 22.2617 26.517 23.4655 26.517 24.6811Z" fill="#3E7366"/>
<path d="M42.4982 80.4962C42.0161 80.4962 41.5289 80.3592 41.1077 80.08L20.4625 66.5703L3.84687 76.5377C3.06531 77.0096 2.08583 77.0198 1.28906 76.5681C0.898076 76.3471 0.572747 76.0263 0.34628 75.6384C0.119813 75.2506 0.000319729 74.8096 0 74.3605V37.6021C0 36.2014 1.13681 35.0646 2.53751 35.0646C3.93822 35.0646 5.07502 36.2014 5.07502 37.6021V69.8792L19.214 61.3989C19.6224 61.1528 20.092 61.027 20.5688 61.036C21.0455 61.0449 21.51 61.1883 21.9089 61.4496L42.5338 74.9492L63.925 61.7541V37.597C63.925 36.1963 65.0618 35.0595 66.4625 35.0595C67.8632 35.0595 69 36.1963 69 37.597V63.1701C69 64.048 68.5432 64.8651 67.7921 65.332L43.8228 80.1156C43.4219 80.3693 42.9601 80.4962 42.4982 80.4962Z" fill="#3E7366"/>
</svg>
