<svg width="43" height="50" viewBox="0 0 43 50" fill="none" xmlns="http://www.w3.org/2000/svg">
<path d="M21.2027 25.9202C23.766 25.9202 26.2717 25.1601 28.4029 23.736C30.5342 22.3119 32.1953 20.2878 33.1762 17.9197C34.1572 15.5515 34.4138 12.9457 33.9138 10.4317C33.4137 7.91769 32.1794 5.60843 30.3669 3.79593C28.5544 1.98343 26.2451 0.749098 23.7311 0.24903C21.2171 -0.251037 18.6112 0.00561528 16.2431 0.986533C13.8749 1.96745 11.8509 3.62858 10.4268 5.75985C9.00271 7.89113 8.24261 10.3968 8.24261 12.9601C8.24261 16.3973 9.60805 19.6938 12.0385 22.1242C14.469 24.5547 17.7655 25.9202 21.2027 25.9202ZM36.2364 32.2058C32.5687 29.0565 26.607 28.253 21.2805 28.1882H21.0601C15.7335 28.253 9.7719 29.0565 6.1042 32.2058C1.56817 36.0938 0 43.0016 0 49.339V50H42.3017V49.339C42.3406 43.0016 40.7724 36.0809 36.2364 32.2058Z" fill="#FBE9E9"/>
</svg>
