<svg width="52" height="52" viewBox="0 0 52 52" fill="none" xmlns="http://www.w3.org/2000/svg">
<path d="M25.9185 52C24.9404 52 24.2884 51.352 24.2884 50.3801C24.2884 49.4081 24.9404 48.7601 25.9185 48.7601C29.0157 48.7601 31.9498 48.1121 34.721 46.9782C35.5361 46.6542 36.5141 46.9782 36.8401 47.7882C37.1661 48.5981 36.8401 49.5701 36.0251 49.8941C32.9279 51.19 29.5047 52 25.9185 52ZM18.9091 50.866H18.4201C14.9969 49.8941 12.0627 48.2741 9.29154 46.0062C8.6395 45.3583 8.47649 44.3863 9.12853 43.7383C9.78056 43.0903 10.7586 42.9283 11.4107 43.5763C13.8558 45.5202 16.4639 46.9782 19.3981 47.7882C20.2132 48.1121 20.7022 48.9221 20.5392 49.7321C20.2132 50.5421 19.5611 50.866 18.9091 50.866ZM43.5235 44.5483C43.0345 44.5483 42.7085 44.3863 42.3824 44.0623C41.7304 43.4143 41.7304 42.4424 42.3824 41.7944C44.5016 39.5265 46.1317 37.0966 47.2727 34.1807C47.5987 33.3707 48.5768 32.8847 49.3918 33.2087C50.2069 33.5327 50.6959 34.5047 50.3699 35.3146C49.0658 38.5545 47.2727 41.4704 44.8276 43.9003C44.3386 44.3863 43.8495 44.5483 43.5235 44.5483ZM4.23824 38.8785C3.58621 38.8785 3.09718 38.5545 2.77116 38.0685C1.14107 34.9907 0.163009 31.5888 0 28.1869C0 27.215 0.652038 26.567 1.46708 26.405C2.44514 26.405 3.09718 27.053 3.26019 27.8629C3.4232 30.9408 4.40125 33.8567 5.70533 36.4486C6.19436 37.2586 5.86834 38.2305 5.05329 38.5545C4.72727 38.7165 4.40125 38.8785 4.23824 38.8785ZM50.3699 26.891C49.5549 26.891 48.7398 26.243 48.7398 25.271C48.7398 22.1931 47.9248 19.2773 46.7837 16.5234C46.4577 15.7134 46.7837 14.7414 47.5987 14.4174C48.4138 14.0935 49.3918 14.4174 49.7179 15.2274C51.185 18.4673 52 21.7072 52 25.271C52 26.243 51.348 26.891 50.3699 26.891ZM2.77116 19.9252C2.60815 19.9252 2.44514 19.9252 2.28213 19.7632C1.46708 19.4393 0.978056 18.6293 1.30408 17.6573C2.28213 14.5794 3.91223 11.5016 6.35737 8.90966C7.0094 8.26168 7.98746 8.09969 8.6395 8.74766C9.29154 9.39564 9.45455 10.3676 8.80251 11.0156C6.8464 13.2835 5.2163 15.8754 4.23824 18.7913C4.07524 19.6012 3.4232 19.9252 2.77116 19.9252ZM42.5455 9.71963C42.2194 9.71963 41.7304 9.55763 41.4044 9.23364C39.1223 7.12773 36.5141 5.50779 33.7429 4.53583C32.9279 4.21184 32.4389 3.23988 32.7649 2.42991C33.0909 1.61994 34.069 1.13396 34.884 1.45794C38.1442 2.5919 41.0784 4.37383 43.6865 6.80374C44.3386 7.45171 44.3386 8.42368 43.8495 9.07165C43.3605 9.55763 42.8715 9.71963 42.5455 9.71963ZM15.1599 5.66978C14.6708 5.66978 14.0188 5.34579 13.6928 4.85981C13.3668 4.04984 13.6928 3.07788 14.5078 2.5919C17.605 1.13396 21.0282 0.161994 24.6144 0C25.4295 0 26.2445 0.647975 26.4075 1.45794C26.4075 2.42991 25.7555 3.07788 24.9404 3.23988C21.8433 3.40187 18.9091 4.21184 16.1379 5.50779C15.6489 5.66978 15.4859 5.66978 15.1599 5.66978Z" fill="#FBE9E9"/>
<path d="M25.7361 14C21.7008 14.4622 19.4588 16.2669 19.0104 19.4125C18.9207 20.4306 19.4137 20.9859 20.4901 21.0781C21.0277 21.171 21.4762 20.7545 21.835 19.829C22.3732 17.886 23.6718 16.9145 25.7361 16.9145C28.2457 17.0993 29.5908 18.3947 29.7719 20.8005C29.7719 23.0214 28.311 23.3834 27.5175 24.053C26.5119 24.9019 25.8543 25.7629 25.0493 27.2222C24.3729 28.4483 24.2563 31.0713 24.2563 31.0713C24.2563 32.1816 24.7482 32.7369 25.7361 32.7369C26.6314 32.7369 27.1261 32.1816 27.2161 31.0713C27.2161 31.0713 27.3347 28.1277 28.4865 26.826C29.792 25.3508 32.9103 24.3165 33 20.5231C32.6412 16.5443 30.2199 14.3699 25.7361 14ZM25.7361 34.1367C24.702 34.1367 23.8641 35.0018 23.8641 36.0682C23.8641 37.1352 24.702 38 25.7361 38C26.7702 38 27.6083 37.1352 27.6083 36.0682C27.6083 35.0018 26.7702 34.1367 25.7361 34.1367Z" fill="#FBE9E9"/>
</svg>
