<svg width="148" height="50" viewBox="0 0 148 50" fill="none" xmlns="http://www.w3.org/2000/svg">
<path d="M28.0378 2.33331C16.1155 2.33331 6.49554 12.1666 6.49554 24.1666C6.49554 36.1666 16.1978 46 28.0378 46C39.8778 46 49.58 36.1666 49.58 24.1666C49.58 12.1666 39.8778 2.33331 28.0378 2.33331ZM28.0378 45.1666C16.6089 45.1666 7.23554 35.75 7.23554 24.1666C7.23554 12.5833 16.5267 3.16665 27.9555 3.16665C39.3844 3.16665 48.6755 12.5833 48.6755 24.1666C48.7578 35.75 39.3844 45.1666 28.0378 45.1666Z" fill="#2A2E82"/>
<path d="M14.1422 23.6667V23.5C14.5533 16.0833 20.6378 10.0833 28.0378 10.0833C35.6022 10.0833 41.7689 16.25 42.0156 23.8333H42.5911C42.4267 15.9167 35.9311 9.5 28.0378 9.5C20.2267 9.5 13.8956 15.8333 13.5667 23.6667V23.8333L14.1422 23.6667Z" fill="#2A2E82"/>
<path d="M17.02 9.16667L17.5955 10.5L18.1711 10.0833L17.02 9.16667ZM36.4244 8.58333C36.5889 8.66667 36.7533 8.66667 36.9178 8.66667C37.0822 8.66667 37.2467 8.5 37.3289 8.25C37.4111 8.08333 37.4933 7.91667 37.4111 7.75C37.4111 7.58333 37.2467 7.41667 37 7.33333L36.8355 7.25H36.7533C36.7533 7.25 36.6711 7.25 36.6711 7.33333L36.0955 8.33333L36.4244 8.58333Z" fill="#04705E"/>
<path d="M37.8222 34.9167C37.6578 34.9167 37.0822 35.5 36.26 36.0834C35.6844 36.5 34.78 37 34.78 37C32.8067 38.0834 30.5044 38.6667 28.12 38.6667C25.6533 38.6667 23.0222 37.9167 20.9667 36.8334C20.1444 36.3334 18.9933 35.5 18.5 34.9167H17.6778C17.76 35 18.0889 35.4167 18.5 35.8334C18.9933 36.25 19.6511 36.75 19.6511 36.8334C22.0355 38.4167 24.9133 39.4167 28.0378 39.4167C31.1622 39.4167 34.1222 38.4167 36.5067 36.75C36.5067 36.75 37.2467 36.1667 37.9044 35.75C38.3155 35.4167 38.6444 35.1667 38.8089 35H38.48L37.8222 34.9167Z" fill="#2A2E82"/>
<path d="M31.5733 37.0833H31.08C31.08 37.0833 31.2445 37.1667 31.4089 37.1667C31.4911 37.1667 31.5733 37.1667 31.5733 37.0833C31.7378 37.0833 31.82 37.0833 31.82 37C31.9022 36.9167 31.9022 36.9167 31.9022 36.8333C31.9022 36.75 31.9022 36.75 31.82 36.6667C31.82 36.6667 31.7378 36.5833 31.6556 36.5833C31.7378 36.5 31.82 36.5 31.82 36.5L31.9022 36.4167C31.9022 36.3333 31.9022 36.3333 31.82 36.25C31.7378 36.25 31.6556 36.1667 31.5733 36.1667C31.4089 36.1667 31.3267 36.25 31.1622 36.3333V36.4167L31.2445 36.3333C31.3267 36.3333 31.3267 36.25 31.4089 36.25C31.5733 36.25 31.6556 36.3333 31.6556 36.4167C31.6556 36.5 31.6556 36.5 31.5733 36.5833C31.4911 36.5833 31.4089 36.6667 31.3267 36.6667H31.5733C31.6556 36.6667 31.6556 36.75 31.7378 36.75C31.82 36.8333 31.82 36.9167 31.7378 37C31.6556 37 31.6556 37 31.5733 37.0833ZM29.0245 37.0833H28.86C29.1067 37.0833 29.2711 37 29.4356 36.9167H29.5178C29.7645 36.75 29.8467 36.5833 29.7645 36.3333C29.7645 36.25 29.6822 36.25 29.6822 36.1667C29.6 36.0833 29.5178 36 29.2711 36C29.1067 36 29.0245 36 28.9422 36.0833C28.7778 36.25 28.7778 36.3333 28.7778 36.4167C28.7778 36.5 28.7778 36.5 28.86 36.5833C28.86 36.6667 28.9422 36.6667 29.0245 36.6667C29.1067 36.75 29.2711 36.75 29.4356 36.6667C29.4356 36.6667 29.5178 36.6667 29.6 36.5833C29.3533 36.9167 29.2711 37 29.0245 37.0833ZM29.2711 36.6667H29.1889C29.1067 36.6667 29.1067 36.5833 29.0245 36.5833C29.0245 36.5 28.9422 36.5 28.9422 36.4167V36.25C28.9422 36.1667 29.0245 36.1667 29.1889 36.1667C29.2711 36.1667 29.3533 36.1667 29.4356 36.25C29.5178 36.3333 29.5178 36.4167 29.5178 36.6667H29.2711ZM24.5845 37.0833H24.42H24.9956H24.9133H24.8311V36.0833L24.42 36.1667H24.6667V36.8333C24.5845 37 24.5845 37.0833 24.5845 37.0833ZM26.5578 36.9167C26.5578 37 26.5578 37.0833 26.64 37.0833C26.7222 37.1667 26.8045 37.1667 26.9689 37.1667C27.1333 37.1667 27.2156 37.1667 27.2978 37.0833C27.38 37 27.38 37 27.38 36.9167C27.38 36.8333 27.2978 36.75 27.1333 36.6667H27.0511C27.1333 36.6667 27.2156 36.5833 27.2978 36.5833C27.38 36.5 27.38 36.5 27.38 36.4167C27.38 36.3333 27.38 36.3333 27.2978 36.25C27.2156 36.1667 27.1333 36.1667 26.9689 36.1667H26.7222C26.5578 36.1667 26.5578 36.25 26.5578 36.4167C26.5578 36.5 26.5578 36.5 26.64 36.5833C26.64 36.5833 26.7222 36.6667 26.8045 36.6667C26.64 36.75 26.5578 36.8333 26.5578 36.9167ZM26.8045 36.4167C26.7222 36.3333 26.7222 36.3333 26.7222 36.25C26.7222 36.25 26.7222 36.1667 26.8045 36.1667C26.8867 36.1667 26.8867 36.0833 27.0511 36.0833C27.1333 36.0833 27.2156 36.0833 27.2156 36.1667L27.2978 36.25C27.2978 36.3333 27.2978 36.4167 27.2156 36.4167C27.1333 36.4167 27.1333 36.5 27.0511 36.5C26.9689 36.5 26.8867 36.5 26.8045 36.4167ZM26.7222 36.75C26.7222 36.75 26.8045 36.6667 26.8867 36.6667C27.0511 36.75 27.1333 36.75 27.1333 36.8333C27.2156 36.9167 27.2156 36.9167 27.2156 37V37.0833C27.1333 37.1667 27.0511 37.1667 26.9689 37.1667C26.8867 37.1667 26.8045 37.1667 26.7222 37.0833V37V36.75Z" fill="#2A2E82"/>
<path d="M130.816 38.1667V38.5833C131.144 38.5833 131.309 38.6667 131.391 38.6667L131.473 38.75V43.75C131.473 43.9167 131.473 44.0833 131.391 44.0833C131.309 44.1667 131.144 44.1667 130.816 44.1667V44.5833H133.282V44.1667C132.953 44.1667 132.789 44.0833 132.789 44.0833C132.707 44.0833 132.707 44 132.707 44C132.707 43.9167 132.624 43.6667 132.624 43.1667V40.6667V38.8333C132.624 38.6667 132.707 38.5833 132.707 38.5833C132.789 38.5833 132.953 38.5 133.282 38.5V38.0833H131.967C131.72 38.25 131.309 38.25 130.816 38.1667ZM136.078 38.25C135.338 38.25 134.516 38.25 133.693 38.1667H133.611C133.611 38.5833 133.693 39.0833 133.693 39.6667H134.022C134.022 39.1667 134.104 38.9167 134.104 38.8333C134.104 38.8333 134.104 38.75 134.187 38.75C134.187 38.75 134.269 38.75 134.433 38.6667H135.584V42.3333C135.584 43.1667 135.584 43.6667 135.502 43.75C135.502 43.8333 135.502 43.9167 135.42 43.9167C135.42 43.9167 135.338 44 135.256 44C135.091 44 134.927 44.0833 134.762 44.0833V44.5H137.311V44.0833C136.982 44.0833 136.736 44 136.736 44C136.653 43.9167 136.653 43.8333 136.653 43.6667V38.9167V38.6667H136.736C137.311 38.6667 137.722 38.6667 137.969 38.75C138.051 38.75 138.051 38.75 138.051 38.8333C138.051 38.9167 138.133 39.1667 138.133 39.6667H138.462C138.462 39.0833 138.544 38.5833 138.544 38.1667L138.462 38.0833C137.722 38.25 136.818 38.25 136.078 38.25ZM89.4578 38.1667V38.5833C89.7867 38.5833 89.9511 38.6667 90.0333 38.6667C90.1155 38.6667 90.1155 38.75 90.1155 38.75C90.1155 38.8333 90.1978 39 90.1978 39.3333V42.9167C89.8689 42.4167 89.3755 41.8333 88.9644 41.1667C88.2244 40.0833 87.5667 39.1667 86.9911 38.25H85.3467V38.6667C85.6755 38.6667 85.84 38.75 85.9222 38.75L86.0044 38.8333C86.0044 38.9167 86.0867 39.25 86.0867 39.75V43.3333C86.0867 43.75 86.0867 44 86.0044 44.0833C86.0044 44.1667 85.9222 44.1667 85.9222 44.1667C85.84 44.1667 85.6755 44.25 85.3467 44.25V44.6667H87.2378V44.25C86.9089 44.25 86.7444 44.1667 86.6622 44.1667L86.58 44.0833C86.58 44 86.4978 43.75 86.4978 43.1667V39.5833C86.8267 40 87.1555 40.5833 87.6489 41.25C88.5533 42.5833 89.3755 43.6667 90.0333 44.5833C90.1978 44.5833 90.3622 44.6667 90.6911 44.75L90.7733 44.6667V39.5V38.75C90.7733 38.6667 90.7733 38.6667 90.8555 38.6667L90.9378 38.5833C91.02 38.5833 91.1844 38.5 91.4311 38.5V38.0833H90.4444C90.0333 38.25 89.7044 38.25 89.4578 38.1667ZM84.0311 43.0833L82.3044 38.1667H81.7289L80.4133 42.1667C80.1667 42.9167 80.0022 43.4167 79.8378 43.8333L79.6733 44.1667C79.5911 44.25 79.5089 44.25 79.2622 44.25V44.6667H80.9889V44.25C80.66 44.25 80.4955 44.1667 80.4133 44.1667C80.3311 44.1667 80.3311 44.0833 80.3311 44V43.8333C80.4133 43.5833 80.4133 43.3333 80.4955 43.1667L80.66 42.6667H82.6333L82.88 43.4167C82.9622 43.75 83.0444 43.9167 83.0444 44C83.0444 44.0833 83.0444 44.0833 82.9622 44.1667C82.88 44.1667 82.7155 44.25 82.4689 44.25V44.6667H84.8533V44.25C84.6067 44.25 84.4422 44.1667 84.36 44.1667C84.2778 44.1667 84.2778 43.75 84.0311 43.0833ZM81.6467 42.1667H80.9067L81.7289 39.8333L82.5511 42.1667H81.6467ZM70.3822 38.1667V38.5833C70.7111 38.5833 70.8755 38.6667 70.9578 38.6667L71.04 38.75C71.04 38.8333 71.1222 39.0833 71.1222 39.4167V41.0833C71.1222 42.0833 71.1222 42.6667 71.04 43C70.9578 43.25 70.7933 43.5 70.6289 43.6667C70.3822 43.8333 70.1355 43.9167 69.7244 43.9167C69.3955 43.9167 69.1489 43.8333 68.9022 43.6667C68.7378 43.5833 68.5733 43.4167 68.4911 43.1667C68.2444 43 68.2444 42.6667 68.2444 42.1667V40.4167V38.9167C68.2444 38.8333 68.2444 38.75 68.3267 38.6667L68.4089 38.5833C68.4911 38.5 68.6555 38.5 68.9022 38.5V38.0833H66.4355V38.5C66.6822 38.5 66.8467 38.5833 66.9289 38.5833C67.0111 38.5833 67.0111 38.6667 67.0111 38.6667C67.0111 38.75 67.0933 38.9167 67.0933 39.0833V42.4167C67.0933 43 67.1755 43.3333 67.34 43.6667C67.5044 43.9167 67.7511 44.1667 68.08 44.3333C68.4089 44.5 68.82 44.5833 69.3955 44.5833C69.8889 44.5833 70.3 44.5 70.6289 44.3333C70.9578 44.1667 71.2044 43.9167 71.3689 43.5833C71.5333 43.25 71.6155 42.9167 71.6155 42.5V41.4167C71.6155 40.5833 71.6155 39.75 71.6978 39.0833C71.6978 38.8333 71.78 38.6667 71.78 38.5833C71.8622 38.5 72.0267 38.5 72.2733 38.5V38.0833H71.3689C71.04 38.25 70.7111 38.25 70.3822 38.1667ZM76.1378 38.1667V38.5833C76.4667 38.5833 76.7133 38.6667 76.7133 38.6667C76.7955 38.6667 76.7955 38.8333 76.7955 39V41H74.4111V40.5833V39.25C74.4111 38.9167 74.4111 38.75 74.4933 38.75C74.4933 38.75 74.4933 38.6667 74.5755 38.6667C74.6578 38.6667 74.8222 38.5833 75.1511 38.5833V38.1667H72.6022V38.5833C72.9311 38.5833 73.1778 38.6667 73.1778 38.6667L73.26 38.75V43.9167C73.26 44 73.1778 44.0833 73.1778 44.1667C73.0955 44.1667 72.9311 44.25 72.6022 44.25V44.6667H75.0689V44.25C74.74 44.25 74.4933 44.1667 74.4933 44.1667C74.4111 44.0833 74.4111 44 74.4111 43.6667V41.5H76.8778V43.75C76.8778 43.9167 76.8778 44.0833 76.7955 44.0833C76.7133 44.1667 76.5489 44.1667 76.22 44.1667V44.5833H78.6867V44.1667C78.3578 44.1667 78.1933 44.0833 78.1111 44.0833C78.1111 44.0833 78.0289 44 78.0289 43.9167V41V39.3333C78.0289 38.9167 78.0289 38.6667 78.1111 38.5833C78.1111 38.5833 78.1111 38.5 78.1933 38.5C78.2755 38.5 78.44 38.4167 78.7689 38.4167V38H77.5355C77.2067 38.25 76.7955 38.25 76.1378 38.1667Z" fill="black"/>
<path d="M64.7089 38.1667V38.5833C65.0378 38.5833 65.2022 38.5833 65.2844 38.6667C65.3666 38.6667 65.3666 38.75 65.3666 38.8333C65.3666 39.0833 65.2844 39.5 65.12 40.0833L64.4622 42.9167L62.9 38.0833H62.4889C62.3244 38.5 62.0778 39.25 61.6666 40.1667L60.68 42.5833L60.2689 40.1667C60.1044 39.25 60.0222 38.75 60.0222 38.6667C60.0222 38.5833 60.0222 38.5 60.1044 38.5C60.1866 38.5 60.3511 38.4167 60.5978 38.4167V38H58.2955V38.4167C58.5422 38.4167 58.7066 38.5 58.7066 38.5C58.7889 38.5833 58.7889 38.6667 58.8711 38.9167L59.2822 41.0833C59.6111 43 59.8578 44.1667 59.94 44.5833H60.5155C60.7622 43.9167 61.0089 43.1667 61.3378 42.4167L62.3244 39.9167L63.8866 44.5833H64.6266L65.2022 41.9167C65.5311 40.3333 65.7778 39.3333 65.86 39C65.9422 38.75 65.9422 38.6667 66.0244 38.5833C66.1066 38.5 66.1889 38.5 66.4355 38.5V38.0833H65.6133C65.4489 38.25 65.12 38.25 64.7089 38.1667ZM125.06 43.9167L124.402 42.75L123.58 41.25C123.991 41 124.32 40.75 124.484 40.5C124.649 40.25 124.731 39.9167 124.731 39.5C124.731 39.25 124.649 39 124.567 38.75C124.484 38.5 124.32 38.4167 124.156 38.25C123.991 38.1667 123.662 38.0833 123.251 38.0833L121.36 38.1667H120.373V38.5833C120.702 38.5833 120.867 38.6667 120.867 38.6667L120.949 38.75C120.949 38.9167 121.031 39.25 121.031 39.8333V43.3333C121.031 43.75 121.031 44 120.949 44.0833C120.949 44.0833 120.949 44.1667 120.867 44.1667C120.784 44.1667 120.62 44.25 120.373 44.25V44.6667H122.84V44.25C122.511 44.25 122.347 44.1667 122.347 44.1667C122.264 44.1667 122.264 44.0833 122.264 44.0833C122.264 44 122.264 43.75 122.182 43.3333V38.75H122.676C123.004 38.75 123.333 38.8333 123.498 39.0833C123.662 39.25 123.744 39.5833 123.744 39.9167C123.744 40.3333 123.662 40.6667 123.416 40.9167C123.169 41.1667 122.922 41.25 122.676 41.25H122.429C122.429 41.3333 122.429 41.3333 122.347 41.4167L123.169 42.8333C123.58 43.6667 123.909 44.25 124.156 44.6667H125.636V44.3333C125.471 44.3333 125.389 44.3333 125.389 44.25L125.06 43.9167ZM113.22 38.1667V38.5833C113.549 38.5833 113.713 38.6667 113.796 38.6667C113.878 38.6667 113.878 38.75 113.878 38.8333C113.878 39 113.713 39.5833 113.384 40.5L112.48 43.0833L111.411 39.9167C111.164 39.25 111.082 38.9167 111.082 38.8333C111.082 38.75 111.082 38.75 111.164 38.6667C111.247 38.6667 111.411 38.5833 111.658 38.5833V38.1667H109.191V38.5833C109.438 38.5833 109.602 38.6667 109.684 38.6667C109.767 38.6667 109.767 38.8333 109.849 39C110.013 39.3333 110.178 39.9167 110.507 40.8333L111.822 44.75H112.398C112.48 44.3333 112.644 43.8333 112.891 43.1667L114.042 39.75C114.289 39.0833 114.453 38.75 114.453 38.6667C114.453 38.5833 114.618 38.5833 114.864 38.5833V38.1667H113.96C114.042 38.25 113.713 38.25 113.22 38.1667ZM143.231 38.1667C142.738 39.1667 142.409 40 142.08 40.5833L141.751 41.25C141.422 40.4167 141.093 39.75 140.847 39.25C140.6 38.8333 140.436 38.5 140.271 38.3333C140.189 38.25 140.107 38.1667 139.942 38.0833C139.531 38.25 139.12 38.3333 138.709 38.4167V38.75H138.873C138.956 38.75 139.038 38.75 139.038 38.8333C139.12 38.9167 139.284 39.0833 139.449 39.3333C139.613 39.5833 139.86 40.0833 140.189 40.75C140.518 41.4167 140.682 41.8333 140.764 42C140.764 42.0833 140.847 42.3333 140.847 42.75V44C140.847 44.0833 140.764 44.1667 140.764 44.25C140.682 44.3333 140.518 44.3333 140.189 44.3333V44.75H142.738V44.3333C142.409 44.3333 142.162 44.3333 142.162 44.25C142.08 44.25 142.08 44.0833 142.08 43.9167V42.4167C142.08 42.0833 142.08 41.8333 142.162 41.6667C142.244 41.5 142.573 40.8333 143.149 39.75C143.478 39.0833 143.807 38.5833 143.889 38.4167V38.1667H143.231ZM106.396 38.1667V38.5833C106.724 38.5833 106.889 38.6667 106.971 38.6667L107.053 38.75V43.75C107.053 43.9167 107.053 44.0833 106.971 44.0833C106.889 44.1667 106.724 44.1667 106.396 44.1667V44.5833H108.862V44.1667C108.533 44.1667 108.369 44.0833 108.369 44.0833C108.287 44.0833 108.287 44 108.287 44C108.287 43.9167 108.204 43.6667 108.204 43.1667V40.6667V38.8333C108.204 38.6667 108.287 38.5833 108.287 38.5833C108.369 38.5833 108.533 38.5 108.862 38.5V38.0833H107.547C107.3 38.25 106.889 38.25 106.396 38.1667ZM119.304 44C118.976 44.0833 118.564 44.0833 118.153 44.0833H117.413V42.0833V41.5833H117.907C118.318 41.5833 118.647 41.5833 118.729 41.6667C118.811 41.6667 118.811 41.75 118.811 41.75C118.811 41.8333 118.893 42.0833 118.893 42.4167H119.222V41.4167V40.4167H118.893C118.893 40.75 118.893 40.9167 118.811 41C118.811 41.0833 118.729 41.0833 118.729 41.1667H117.331C117.331 40.5833 117.331 39.8333 117.413 38.9167H118.153C118.564 38.9167 118.893 38.9167 119.14 39C119.222 39 119.304 39.0833 119.304 39.0833C119.304 39.0833 119.304 39.3333 119.387 39.8333H119.716C119.716 39.25 119.798 38.8333 119.798 38.5V38.4167H117.084C116.756 38.4167 116.262 38.4167 115.687 38.3333V38.75C116.016 38.75 116.18 38.8333 116.262 38.8333C116.344 38.9167 116.344 39 116.344 39.1667V41.25C116.344 42.75 116.344 43.8333 116.262 44.25C116.18 44.3333 116.016 44.4167 115.851 44.5V44.75H119.058C119.304 44.75 119.469 44.75 119.716 44.6667C119.716 44.1667 119.798 43.6667 119.798 43.0833H119.469C119.469 43.4167 119.387 43.75 119.304 44ZM97.5978 38.1667V38.5833C97.9266 38.5833 98.0911 38.6667 98.1733 38.6667L98.2555 38.75C98.2555 38.8333 98.3378 39.0833 98.3378 39.4167V41.0833C98.3378 42.0833 98.3378 42.6667 98.2555 43C98.1733 43.25 98.0089 43.5 97.8444 43.6667C97.5978 43.8333 97.3511 43.9167 96.94 43.9167C96.6111 43.9167 96.3644 43.8333 96.1178 43.6667C95.9533 43.5833 95.7889 43.4167 95.7066 43.1667C95.6244 42.9167 95.5422 42.5833 95.5422 42.0833V40.3333V38.8333C95.5422 38.75 95.5422 38.6667 95.6244 38.5833L95.7066 38.5C95.7889 38.4167 95.9533 38.4167 96.2 38.4167V38H93.7333V38.4167C93.98 38.4167 94.1444 38.5 94.2266 38.5C94.3089 38.5 94.3089 38.5833 94.3089 38.5833C94.3089 38.6667 94.3911 38.8333 94.3911 39V42.3333C94.3911 42.9167 94.4733 43.25 94.6378 43.5833C94.8022 43.8333 95.0489 44.0833 95.3778 44.25C95.7066 44.4167 96.1178 44.5 96.6933 44.5C97.1866 44.5 97.5978 44.4167 97.9266 44.25C98.2555 44.0833 98.5022 43.8333 98.6666 43.5C98.8311 43.1667 98.9133 42.8333 98.9133 42.4167V41.3333C98.9133 40.5 98.9133 39.6667 98.9955 39C98.9955 38.75 99.0778 38.5833 99.0778 38.5C99.16 38.4167 99.3244 38.4167 99.5711 38.4167V38H98.6666C98.2555 38.25 97.9266 38.25 97.5978 38.1667ZM129.418 41C129.253 40.9167 129.007 40.8333 128.596 40.75C128.102 40.6667 127.856 40.5833 127.691 40.5C127.527 40.4167 127.444 40.3333 127.362 40.1667C127.28 40 127.28 39.8333 127.28 39.6667C127.28 39.3333 127.362 39.0833 127.609 38.9167C127.773 38.75 128.102 38.5833 128.431 38.5833C128.678 38.5833 128.924 38.6667 129.089 38.75C129.253 38.8333 129.418 39 129.418 39.0833C129.418 39.1667 129.5 39.4167 129.5 39.9167H129.829C129.829 39.5 129.829 39.25 129.911 39.0833C129.911 38.9167 129.993 38.75 129.993 38.5833V38.5C129.747 38.4167 129.5 38.3333 129.336 38.25C129.089 38.1667 128.842 38.1667 128.596 38.1667C127.856 38.1667 127.28 38.3333 126.951 38.75C126.622 39.1667 126.458 39.6667 126.458 40.25C126.458 40.5833 126.54 40.9167 126.622 41.1667C126.704 41.4167 126.869 41.5833 127.116 41.75C127.362 41.8333 127.773 42 128.349 42.0833C128.76 42.1667 129.007 42.25 129.171 42.4167C129.336 42.5833 129.418 42.8333 129.418 43.1667C129.418 43.5 129.336 43.8333 129.089 44C128.842 44.25 128.596 44.3333 128.184 44.3333C127.938 44.3333 127.773 44.3333 127.609 44.25C127.444 44.1667 127.28 44.0833 127.116 43.9167C126.951 43.75 126.951 43.6667 126.869 43.5833V42.75H126.54V43.75C126.54 43.9167 126.458 44.0833 126.458 44.3333C126.704 44.5 127.033 44.5833 127.28 44.6667C127.527 44.75 127.856 44.75 128.184 44.75C128.924 44.75 129.5 44.5 129.911 44.0833C130.322 43.6667 130.569 43.0833 130.569 42.5C130.569 42.0833 130.487 41.8333 130.404 41.5833C129.829 41.3333 129.664 41.0833 129.418 41ZM104.011 38.1667V38.5833C104.34 38.5833 104.504 38.6667 104.587 38.6667C104.669 38.6667 104.669 38.75 104.669 38.75C104.669 38.8333 104.751 39 104.751 39.3333V42.9167C104.422 42.4167 103.929 41.8333 103.518 41.1667C102.778 40.0833 102.12 39.1667 101.544 38.25H99.9V38.6667C100.229 38.6667 100.393 38.75 100.476 38.75L100.558 38.8333C100.558 38.9167 100.64 39.25 100.64 39.75V43.3333C100.64 43.75 100.64 44 100.558 44.0833C100.558 44.1667 100.476 44.1667 100.476 44.1667C100.393 44.1667 100.229 44.25 99.9 44.25V44.6667H101.791V44.25C101.462 44.25 101.298 44.1667 101.216 44.1667L101.133 44.0833C101.133 44 101.051 43.75 101.051 43.1667V39.5833C101.38 40 101.709 40.5833 102.202 41.25C103.107 42.5833 103.929 43.6667 104.587 44.5833C104.751 44.5833 104.916 44.6667 105.244 44.75L105.327 44.6667V39.5V38.75C105.327 38.6667 105.327 38.6667 105.409 38.6667L105.491 38.5833C105.573 38.5833 105.738 38.5 105.984 38.5V38.0833H104.998C104.587 38.25 104.34 38.25 104.011 38.1667Z" fill="black"/>
<path d="M116.509 23.0834V24.0834L117.331 24.1667H118.4L118.564 23.5L118.318 22.8334L117.742 22.25L116.756 22L115.933 21.8334L115.111 21.5V20.8334L115.193 20.25L115.687 19.75L116.344 19.4167L117.167 19.0834L117.66 18.6667L117.578 18.0834L117.084 17.75L116.591 17.8334L115.933 18.3334L115.522 18.5V17.75L115.604 17.1667L115.851 16.4167L115.933 15.5834L115.358 15.0834L114.7 14.6667H114.207L113.713 14.8334L113.878 15.5L114.042 16.3334L114.124 17.1667L114.207 18.0834V19L113.713 19.75L112.973 19.9167L112.151 20.0834L111.493 20.1667H110.671L110.178 21L110.507 21.4167L110.753 21.75L111.493 21.6667L112.316 21.25L113.056 20.8334L113.878 20.6667L113.96 21.25L113.713 21.9167L113.056 22.8334L112.069 23.6667L111.164 24.3334L110.753 24.75L110.836 25.3334L111.576 25.4167L112.233 25.1667L112.973 24.75L113.467 24.0834L113.631 23.5L114.124 23L114.453 22.3334L114.864 22.1667L115.276 22.25L116.098 22.6667L116.509 23.0834ZM62.7356 32.0834L63.8867 31.8334L65.5311 30.9167L67.1756 29.8334L68.7378 28.6667L70.1356 27.5834L71.2867 26.5L72.1089 25.75L73.1778 24.8334L73.5067 25.9167L74.2467 27L74.8222 28.3334L75.3156 29.75L76.0556 30.8334L77.0422 30.3334L77.4533 28.6667L77.7 25.5834V23.3334L77.2067 22.1667L76.4667 21.4167V22.5L76.3844 23.5834V25L76.3022 25.8334L75.8089 25.3334L75.2333 24.4167L74.74 23.3334L74.1644 21.5834L73.8356 19.6667L73.7533 18.75L74.4933 18.25L75.5622 18V16.9167L74.6578 17L73.8356 17.3334L73.5067 16.75L73.4244 14.5L73.7533 12.25V10L73.1778 9.00002L72.2733 8.75002L70.8756 8.66669L71.1222 10L71.6156 11.6667L71.8622 13.6667V15.6667L72.0267 17.5834L71.3689 18.0834L70.2178 18.6667L68.9022 19.0834L67.2578 19.5834L66.3533 20.0834L64.4622 20.9167L62.9 21.4167L62.16 21.75H61.3378L60.8444 22.3334L61.7489 22.8334L62.4889 23.3334L63.3933 23.5834L64.2156 22.75L65.3667 22.1667L66.2711 21.6667H67.0111L67.1756 23.0834L66.8467 24L66.5178 24.75L67.0111 25.5L67.8333 25.5834L68.6556 24.75L69.3956 23.5834L69.9711 23H70.5467L70.7933 24.4167L70.5467 25.3334L69.7244 26.25L68.5733 27L66.9289 28.1667L65.4489 29.1667L63.3111 29.9167L61.6667 30.4167L60.5978 30.75V31.5L61.9133 31.8334L62.7356 32.0834ZM70.1356 21.6667L70.0533 22.1667L69.1489 22.3334L68.4089 22.25L67.5867 21.9167V21.1667L68.4911 20.6667L69.6422 20.1667L69.9711 20.6667V21.6667H70.1356ZM70.6289 19.75L71.3689 19.4167L72.1089 19.1667L72.3556 19.9167L72.6022 20.5834L72.8489 21.5L72.9311 22.4167L72.8489 23.1667L72.1089 23.0834L71.3689 22.3334L71.04 21.5V20.5834L70.6289 19.75Z" fill="#FF0003"/>
<path d="M65.86 27.0833V26.0833L65.2845 25.25L65.0378 24.5833L64.4622 25.1667V25.8333L63.8045 26.5833L63.5578 27.6667L64.4622 27.75L65.2845 27.5L65.86 27.0833ZM77.6178 12.75H76.6311L76.4667 13.1667L76.8778 14.0833L76.96 14.75L76.7134 15.5833L76.96 16.3333H77.8645L78.6045 15.75L78.8511 14.25L78.3578 13.5833L77.6178 12.75ZM67.9156 17.6667L69.0667 17.25L69.9711 16.6667L70.7111 15.9167V15.25L69.9711 14.6667L69.0667 15L68.3267 15.5L67.4222 15.9167L66.6 16.3333L65.6956 16.6667L66.8467 17.4167L67.9156 17.6667ZM88.2245 15.3333L88.4711 14.4167L89.2111 13.6667L89.4578 12.8333L89.2111 11.5833L88.8 10.8333L88.2245 10.0833L87.8956 10.75V12.1667L87.5667 13.9167L87.4845 15.5L87.6489 16.3333L88.2245 15.3333ZM97.1867 29.25L98.42 29.3333L99.2423 29.5833L99.9822 29.5L100.229 28.75V27.8333L99.8178 27.0833L99.3245 26.25L98.3378 25.6667L97.7622 25.5833L98.2556 26.75L98.3378 27.5833L98.0911 28.5L97.1867 29.25ZM86.2511 31L87.32 30.5833L87.5667 29.5833L87.6489 28.5833L87.9778 27.4167L88.1422 26.25L88.3889 24.75L88.8 23.8333L89.0467 22.6667L89.2934 21.6667L89.8689 21L90.0334 20L90.28 19.1667L89.2934 19.4167L89.0467 18.5833L88.3067 17.4167L87.6489 17.25L87.5667 18.5V20L87.1556 21.1667L86.58 22.75L86.4978 24.0833L86.2511 25.4167L86.1689 26.5833L85.6756 27.9167L85.1822 29.0833L85.6756 30.25L86.2511 31ZM94.3911 27.1667L93.8978 27.8333L93.5689 28.25L93.8978 28.5L94.3911 28.1667L94.9667 27.6667L95.6245 27L96.1178 26.25L96.2822 25.5833L96.4467 25.0833L97.1045 24.75L98.0089 24.6667L98.5845 24.4167L99.4889 23.9167L99.9822 23.4167L100.229 22.9167L100.887 22.8333V22.0833L100.311 21.75H99.16L98.42 21.6667L98.5022 22.25L98.42 22.8333L97.9267 23.3333L97.3511 23.4167L97.0222 23.25L97.1045 22.8333L97.4334 22.5L97.68 22.1667L97.7622 21.4167L98.0911 20.9167L98.5022 20.3333V19.5833L98.42 18.8333L98.0911 18.3333L98.0089 17.5833H98.7489L99.0778 17.3333L99.5711 16.8333L99.8178 16.3333V15.8333L99.3245 15.5L98.8311 15.1667L98.2556 15.25L97.7622 15.1667V14.0833L98.0089 13.5L98.5022 13L98.9956 12.5L99.4889 12.1667L99.9 11.6667L100.229 11L100.393 10.25V9.41667L99.9822 8.91667L99.4889 8.75L99.16 9.08333L98.9134 9.83333V10.75L98.5845 11.4167L98.0089 11.75H97.5156V11.25L97.2689 10.9167L96.7756 10.5833V11.25L96.94 11.75V12.25L96.8578 12.9167L96.4467 13L96.3645 12.6667L96.2822 12.25L95.8711 11.9167H95.46L95.3778 12.6667L95.2956 13.75L94.8022 14.4167L94.1445 14.8333L93.4867 15.1667L92.9111 15.5833L92.1711 15.6667L91.5956 16.1667L92.1711 16.5L92.9934 16.8333H93.5689L93.8156 17.4167L94.1445 17.9167L93.8156 18.4167L93.6511 19.5833L93.1578 20.5833L92.5 21.3333L92.1711 21.8333L92.4178 22.3333L92.7467 22.8333L93.24 22.9167L93.8156 22.8333L94.2267 22.5L94.4734 22L94.8022 21.9167L95.5422 22.25L95.3778 23.3333L95.2956 23.8333L94.5556 24.1667L93.98 24.25L93.4045 24.3333L93.3222 24.9167L93.98 25H94.4734L94.8022 25.5V26.25L94.3911 27.1667ZM96.2 18.5L96.6934 18.8333L96.6111 19.3333L96.0356 19.5833L95.5422 19.75L94.8022 19.6667V19L95.2956 18.6667L96.2 18.5ZM93.8156 16.6667L94.3089 16.1667L94.8022 15.6667H95.5422L96.0356 16.4167L95.9534 17.3333L95.0489 17.4167L94.4734 17.0833L93.8156 16.6667ZM95.2134 21.5833L94.3911 21.6667L94.0622 21.3333L94.3911 20.75L95.1311 20.6667L95.6245 20.4167L96.1178 20.5L96.0356 21.0833L95.2134 21.5833ZM129.993 19.5833L130.733 19.5L131.227 18.9167L131.309 18.0833L131.638 17.75L132.707 17.6667L133.036 17L133.118 15.4167L132.296 14.6667L131.884 14.1667L131.638 14.3333V15L131.473 15.3333H130.816L130.24 15.0833L130.158 16.3333L129.993 17.4167L129.747 18.1667L129.336 18.5833L129.418 19.0833L129.993 19.5833Z" fill="#FF0003"/>
<path d="M139.367 25.3333L139.12 24.8333L138.627 24.75L137.722 24.8333L136.982 25.0833H136.489L136.571 24.1667L136.653 23.4167L136.982 22.6667L137.393 22.3333L138.133 22.0833L138.873 21.75L139.449 21.1667L139.942 20.5833L140.682 20.0833L140.353 18.9167L139.613 18.5833L138.956 18.8333L138.38 19.1667L138.051 18.75L138.133 18.4167L138.627 17.9167L139.531 17.3333L140.024 16.5833L140.929 16.0833L141.504 15.5833L142.327 15.3333L143.231 14.9167L143.642 14.1667V13.4167L143.067 12.5833L142.491 12.0833L141.833 12L141.422 12.3333L140.929 12.8333L140.189 12.9167H139.778L139.613 12.5833L139.696 12.25L140.189 12.1667L140.682 11.6667L140.929 10.8333L140.847 10.3333L140.518 9.83333L140.024 9.5L139.449 9.58333L139.202 10.1667L138.873 11L138.544 11.75L138.133 12.5L137.64 12.4167L137.393 12.0833L136.9 11.5833L136.407 11.4167L136.078 11.5V11.8333L136.489 12.6667L136.736 13.25L136.242 13.6667L135.667 14.1667L135.749 14.6667H136.078L136.736 14.3333H137.147L137.476 14.8333L137.804 15.4167L138.462 15.1667L139.038 15L139.367 15.3333L139.86 15.4167L139.696 15.9167L139.202 16L138.709 16.5L137.969 16.8333L137.393 16.3333L137.064 15.9167L136.736 15.8333L136.407 15.5L135.913 16.3333L135.831 16.6667L134.927 16.5833L134.598 16.25L134.269 16.5833L134.516 17.3333L134.598 18.0833L133.776 18.9167L134.598 19.1667L135.502 19.25L135.338 19.9167L134.516 20.4167L131.802 21.4167L129.664 22.25L128.513 22.3333L127.773 22.25H127.033L126.704 22.75L127.116 23.3333L127.691 23.6667L128.431 24.0833L129.253 24.25L129.993 24L130.733 23.5833L131.884 23.1667L132.624 22.6667L133.529 22.1667L134.433 21.6667L135.338 21.0833L136.324 20.5L136.818 20.1667L137.969 20.25L138.051 20.8333L137.229 21.5L136.324 22.0833L135.584 22.3333L134.762 23L134.844 24.1667L134.762 25.25L134.187 25.75L133.036 26.0833L131.72 26.3333L130.569 26.4167L130.076 26.75L130.158 27.4167L130.569 27.75L131.144 28.0833L132.049 27.75L132.624 27.4167L133.364 27.1667L134.104 26.9167L134.844 26.8333L134.927 27.75L134.844 28.5833L134.351 29L132.871 28.9167L132.46 28.6667L132.131 28.8333L132.542 29.75L133.036 30.1667L133.776 30.4167L134.516 30.8333L135.256 30.9167L135.996 30.75L136.571 30L136.653 28.75L136.571 27.5833V26.3333L136.818 25.8333H138.709L139.367 25.75V25.3333ZM139.613 14.5L138.791 14.5833L138.544 14.25L138.791 13.9167H139.531L140.271 14L141.422 13.9167L141.34 14.5833L141.011 15.0833H140.518L139.613 14.5Z" fill="#FF0003"/>
<path d="M33.4644 23.8333H33.9578V25.5H33.4644V23.8333ZM32.1489 23.8333H32.6422V25.5H32.1489V23.8333ZM34.5333 25.5833V24.3333L34.2867 23.8333H34.04V25.5833H34.5333ZM38.5622 22.9167H34.6155L35.1089 23.25H38.2333L38.5622 22.9167ZM31.4911 23.8333H31.9844V25.5H31.4911V23.8333ZM21.6244 23.5L21.5422 23.6667H34.2044V23.5H21.6244ZM37.8222 23.75L37.9867 23.5H35.3555L35.6844 23.75H37.8222ZM32.8067 23.8333H33.3V25.5H32.8067V23.8333ZM18.0067 23.75H20.1444L20.3911 23.5H17.76C17.9244 23.75 17.9244 23.75 18.0067 23.75ZM27.4622 17.25H28.2844C28.4489 16.9167 28.4489 16.6667 28.5311 16.0833C28.4489 15.75 28.5311 15.0833 28.2022 14.75C28.3667 14.5 28.4489 14.6667 28.5311 14.3333C28.5311 14.0833 28.4489 14.0833 28.3667 13.9167H27.38C27.2978 14.0833 27.2978 14.1667 27.2978 14.3333C27.2978 14.6667 27.4622 14.5833 27.5444 14.75C27.2978 15.0833 27.2155 15.8333 27.2155 16.0833C27.2978 16.6667 27.2155 16.9167 27.4622 17.25ZM27.4622 13.5H28.2022V13.75H27.4622V13.5ZM37.4111 34.9167H18.7467L19.24 35.1667H36.8355L37.4111 34.9167ZM12.0044 34.75H44.0711L44.4 34.3333H11.7578C11.7578 34.4167 12.0044 34.75 12.0044 34.75ZM21.0489 22.9167H17.2667L17.5955 23.25L20.6378 23.3333L21.0489 22.9167ZM29.5178 22C29.6822 22 29.7644 21.9167 29.7644 21.8333V21.6667C29.7644 21.5833 29.6822 21.5 29.5178 21.5H28.4489C28.2844 21.5 28.2022 21.5833 28.2022 21.6667V21.75C28.2022 21.8333 28.2844 21.9167 28.4489 21.9167H29.5178V22ZM31.4911 22C31.6555 22 31.7378 21.9167 31.7378 21.8333V21.6667C31.7378 21.5833 31.6555 21.5 31.4911 21.5H30.4222C30.2578 21.5 30.1755 21.5833 30.1755 21.6667V21.75C30.1755 21.8333 30.2578 21.9167 30.4222 21.9167H31.4911V22ZM33.5467 22.4167C33.7111 22.4167 33.7933 22.4167 33.8755 22.25V22.1667C33.8755 22.0833 33.7933 21.9167 33.7111 21.9167L32.6422 21.6667C32.4778 21.6667 32.3955 21.6667 32.3133 21.8333V21.9167C32.3133 22 32.3955 22.1667 32.4778 22.1667L33.5467 22.4167ZM11.6755 34.25H44.4L44.7289 33.8333H11.4289C11.3467 33.75 11.6755 34.25 11.6755 34.25Z" fill="#2A2E82"/>
<path d="M34.8622 21.9166L35.4378 21.4166L35.6844 21.0833L36.1778 20.1666L35.6844 20.5833L34.9444 20.75H34.3689L33.7111 20.5833L33.4644 20.3333L33.3 19.9166L33.4644 19.25C33.4644 19.1666 33.5467 18.4166 33.5467 18.4166C33.4644 18.6666 33.3 18.8333 32.9711 19C32.7244 19.1666 32.3956 19.3333 32.2311 19.4166C31.9844 19.5 31.9844 19.5 31.4911 19.5L30.7511 19.25V18.25L30.9978 18V17.0833H30.2578L30.0933 17.5H28.3667V17.3333H27.4622V17.5H25.7356L25.6533 17.0833H24.9133V18L25.16 18.25V19.1666L24.7489 19.3333C24.5844 19.4166 24.3378 19.5 24.0911 19.5C23.7622 19.5 22.6933 18.8333 22.4467 18.4166C22.4467 18.3333 22.4467 19.0833 22.5289 19.25L22.6933 19.8333L22.5289 20.3333L22.4467 20.4166L22.2 20.5833L21.46 20.8333H20.8844L20.3911 20.75L20.2267 20.6666L19.7333 20.25L20.1444 21.1666L20.3089 21.3333L20.72 21.8333L21.1311 22.0833C21.2133 22.1666 21.9533 22.1666 21.8711 22.1666C21.7889 22.0833 22.5289 21.75 22.4467 21.75L23.5978 21.3333H32.6422L33.7111 21.75L34.2867 22.0833L34.8622 21.9166Z" fill="#2A2E82"/>
<path d="M43.0022 24.1667L42.18 24.25L41.44 24L40.7 23.25L39.6311 21.1667L38.6444 23.25L37.8222 24L37.0822 24.25L36.26 24.1667L35.6022 23.9167L34.1222 22.6667L34.5333 24.0834L35.1089 25L35.6844 25.6667L35.8489 25.75H19.98L20.0622 25.6667L20.72 25L21.2955 24.0834L21.7067 22.6667L20.2267 23.9167L19.4867 24.1667L18.6644 24.25L17.9244 24L17.1844 23.25L16.1155 21.1667L15.1289 23.25L14.3067 24L13.5667 24.25L12.7444 24.1667L12.0867 23.9167L10.6067 22.6667L11.0178 24.0834L11.5111 25L12.1689 25.5834L12.58 25.9167L13.0733 26.1667H42.6733L43.5778 25.5834L44.2355 25L44.8111 24.0834L45.2222 22.6667L43.7422 23.9167L43.0022 24.1667Z" fill="#2A2E82"/>
<path d="M27.5445 22C27.7089 22 27.7911 21.9167 27.7911 21.8333V21.6667C27.7911 21.5833 27.7089 21.5 27.5445 21.5H26.4756C26.3111 21.5 26.2289 21.5833 26.2289 21.6667V21.75C26.2289 21.8333 26.3111 21.9167 26.4756 21.9167H27.5445V22ZM34.6978 24.5833V25.5833H35.1911V25.25L34.6978 24.5833ZM21.6245 32.0833H34.4511L34.3689 31.9167H21.7067L21.6245 32.0833ZM30.8333 23.8333H31.3267V25.5H30.8333V23.8333ZM26.8867 28.75H29.1067V31.0833H26.8867V28.75ZM20.6378 25.5833H21.1311V24.5833L20.6378 25.25V25.5833ZM21.0489 33.4167H35.0267L34.9445 33.1667H21.1311L21.0489 33.4167ZM21.46 32.5H34.6156L34.5333 32.3333H21.5422L21.46 32.5ZM21.8711 31.5L21.7889 31.6667H34.2045L34.1222 31.5H21.8711ZM21.2956 33H34.78L34.6978 32.75H21.3778L21.2956 33Z" fill="#2A2E82"/>
<path d="M42.4267 27.1666H35.8489V27H42.3445V26.3333H28.2845V26.25H27.6267V26.3333H13.4022V27H20.0622V27.1666H13.4022V32.0833H12.6622L12.0045 33.4166H20.0622L20.8845 31.4166H20.2267V31.1666H36.3422V31.4166H35.1911L36.0956 33.3333H44.1533L43.2489 31.9166H42.3445V27.1666H42.4267ZM19.7333 31.0833V27.5H20.0622V30.75C20.0622 30.9166 20.1445 31.0833 20.1445 31.0833H19.7333ZM35.3556 27V27.1666H32.8067V27.0833V27H35.3556ZM32.3133 27V27.1666H31.9845V27.0833V27H32.3133ZM28.2845 27H31.4911V27.1666H28.2845V27ZM27.6267 27V27.1666H24.42V27.0833V27H27.6267ZM23.9267 27V27.1666H23.5978V27.0833V27H23.9267ZM23.1867 27V27.1666H20.5556V27.0833V27H23.1867ZM20.3911 31.0833C20.4733 31.0833 20.4733 30.9166 20.4733 30.75V28.3333L21.2133 27.5H22.2822L23.0222 28.3333V30.75C23.0222 30.9166 23.1045 31.0833 23.1045 31.0833H20.3911ZM23.5156 31.0833C23.5978 31.0833 23.5978 30.9166 23.5978 30.75V27.5H23.9267V30.75C23.9267 30.9166 24.0089 31.0833 24.0089 31.0833H23.5156ZM29.2711 31.0833H26.64V28.5H29.2711V31.0833ZM29.4356 31.0833V28.3333H26.5578V31H24.3378C24.42 31 24.42 30.8333 24.42 30.6666V28.3333L25.16 27.5H30.7511L31.4911 28.3333V30.75C31.4911 30.9166 31.5733 31.0833 31.5733 31.0833H29.4356ZM31.9022 31.0833C31.9845 31.0833 31.9845 30.9166 31.9845 30.75V27.5H32.3133V30.75C32.3133 30.9166 32.3956 31.0833 32.3956 31.0833H31.9022ZM32.7245 31.0833C32.8067 31.0833 32.8067 30.9166 32.8067 30.75V28.3333L33.5467 27.5H34.5333L35.2733 28.3333V31.0833H32.7245ZM36.26 31.0833H35.7667V27.5H36.26V31.0833ZM25.7356 23.8333H26.2289V25.5H25.7356V23.8333ZM23.1867 23.8333H23.68V25.5H23.1867V23.8333ZM24.5022 23.8333H24.9956V25.5H24.5022V23.8333ZM25.0778 23.8333H25.5711V25.5H25.0778V23.8333ZM27.0511 23.8333H27.5445V25.5H27.0511V23.8333ZM26.3933 23.8333H26.8867V25.5H26.3933V23.8333ZM29.6 23.8333H30.0933V25.5H29.6V23.8333ZM27.7089 23.8333H28.2022V25.5H27.7089V23.8333ZM30.2578 23.8333H30.7511V25.5H30.2578V23.8333ZM28.9422 23.8333H29.4356V25.5H28.9422V23.8333ZM28.2845 23.8333H28.7778V25.5H28.2845V23.8333ZM23.8445 23.8333H24.3378V25.5H23.8445V23.8333ZM21.2956 24.4166V25.5833H21.7067V23.8333H21.5422L21.2956 24.4166ZM22.7756 22.3333L23.7622 22.0833C23.9267 22.0833 24.0089 21.9166 23.9267 21.8333V21.75C23.9267 21.6666 23.7622 21.5833 23.68 21.6666L22.6933 21.9166C22.5289 21.9166 22.4467 22.0833 22.5289 22.1666V22.25C22.5289 22.3333 22.6111 22.4166 22.7756 22.3333ZM21.8711 23.8333H22.3645V25.5H21.8711V23.8333ZM25.6533 22C25.8178 22 25.9 21.9166 25.9 21.8333V21.75C25.9 21.6666 25.8178 21.5833 25.6533 21.5833H24.6667C24.5022 21.5833 24.42 21.6666 24.42 21.75V21.8333C24.42 21.9166 24.5022 22 24.6667 22H25.6533ZM21.7889 22.8333L21.7067 23.25H34.1222L34.04 22.8333H21.7889ZM22.5289 23.8333H23.0222V25.5H22.5289V23.8333Z" fill="#2A2E82"/>
<path d="M27.2978 41.8333L27.2156 41.9166V42H27.4622L27.5444 41.9166L27.4622 41.8333H27.2978ZM27.2156 42.0833H27.1333V42.25H27.2156L27.38 42.1666V42.0833H27.2978H27.2156Z" fill="black"/>
<path d="M28.0378 3.91669C17.1022 3.91669 8.14001 13 8.14001 24.1667C8.14001 28.0834 9.29113 31.8334 11.1822 34.9167L11.5933 35.5834C11.7578 35.9167 12.0045 36.1667 12.2511 36.5C15.8689 41.25 21.6245 44.3334 28.0378 44.3334C34.2867 44.3334 39.7956 41.3334 43.5778 36.8334L44.5645 35.4167C44.6467 35.25 44.8111 35.1667 44.8933 35C46.8667 31.75 48.1 28.1667 48.1 24.0834C48.0178 13 39.0556 3.91669 28.0378 3.91669ZM40.9467 10.0834L41.9333 11.1667L41.8511 11.25L41.5222 10.9167L41.44 10.8334H41.3578L39.5489 12.5834C39.5489 12.5834 39.4667 12.6667 39.5489 12.6667C39.5489 12.6667 39.5489 12.75 39.6311 12.75L39.96 13.0834L39.7956 13.3334L38.8089 12.3334L38.8911 12.25L39.22 12.5834L39.3022 12.6667C39.3022 12.6667 39.3845 12.6667 39.3845 12.5834L41.1933 10.8334L41.2756 10.75C41.2756 10.75 41.2756 10.6667 41.1933 10.6667L40.8645 10.3334L40.9467 10.0834ZM38.3978 10C38.2333 9.66669 38.1511 9.41669 38.1511 9.33335C38.1511 9.16669 38.1511 9.00002 38.3156 8.83335C38.3978 8.66669 38.5622 8.58335 38.8089 8.58335C39.0556 8.58335 39.22 8.58335 39.4667 8.75002L39.7133 9.00002C39.7956 9.08335 39.7956 9.16669 39.8778 9.16669H40.1245L39.7133 9.83335H39.6311C39.7133 9.58335 39.7133 9.33335 39.7133 9.25002C39.7133 9.08335 39.6311 9.00002 39.4667 8.91669C39.3022 8.75002 39.1378 8.75002 38.9733 8.75002C38.8089 8.83335 38.7267 8.91669 38.6445 9.00002C38.5622 9.08335 38.5622 9.16669 38.5622 9.33335C38.5622 9.41669 38.6445 9.66669 38.8089 10C38.9733 10.25 39.0556 10.5 39.0556 10.6667C39.0556 10.8334 38.9733 11.0834 38.8911 11.1667C38.7267 11.3334 38.5622 11.4167 38.3978 11.5H38.3156C38.1511 11.5 37.9867 11.4167 37.74 11.25L37.4933 11C37.4111 10.9167 37.4111 10.8334 37.3289 10.8334H37.0822L37.4933 10L37.6578 10.0834C37.5756 10.3334 37.4933 10.5834 37.5756 10.75C37.6578 10.9167 37.74 11.0834 37.8222 11.1667C37.9867 11.25 38.1511 11.3334 38.2333 11.3334C38.3978 11.3334 38.5622 11.1667 38.6445 11C38.7267 10.9167 38.7267 10.75 38.7267 10.6667C38.6445 10.4167 38.5622 10.25 38.3978 10ZM36.26 6.83335L37.1645 7.33335C37.4111 7.50002 37.5756 7.58335 37.6578 7.83335C37.74 8.00002 37.74 8.25002 37.5756 8.41669C37.4933 8.66669 37.3289 8.75002 37.1645 8.83335C37 8.91669 36.8356 8.91669 36.6711 8.83335L36.5067 10.25V10.3334C36.5067 10.3334 36.5067 10.4167 36.5889 10.4167L36.6711 10.5L36.5889 10.5834L36.1778 10.25L36.3422 8.58335L36.0133 8.41669L35.4378 9.50002V9.58335C35.4378 9.58335 35.4378 9.66669 35.52 9.66669L35.6022 9.75002L35.52 9.83335L34.78 9.41669L34.8622 9.33335L34.9445 9.41669H35.0267C35.0267 9.41669 35.1089 9.41669 35.1089 9.33335L36.3422 7.08335V7.00002C36.3422 7.00002 36.3422 6.91669 36.26 6.91669L36.1778 6.83335H36.26ZM33.7933 5.75002L35.4378 6.41669V7.08335H35.3556C35.3556 6.91669 35.2733 6.75002 35.1911 6.58335L34.9445 6.33335L34.4511 6.16669H34.3689C34.3689 6.16669 34.2867 6.16669 34.2867 6.25002L33.8756 7.25002L34.3689 7.41669C34.4511 7.41669 34.5333 7.50002 34.6156 7.41669C34.6978 7.41669 34.6978 7.33335 34.78 7.16669L34.8622 7.08335L35.0267 7.16669L34.5333 8.16669L34.3689 8.08335V8.00002C34.4511 7.91669 34.4511 7.75002 34.3689 7.66669C34.3689 7.58335 34.2867 7.50002 34.2045 7.50002L33.7111 7.33335L33.2178 8.58335V8.66669L33.3 8.75002L33.7111 8.91669C33.8756 9.00002 34.04 9.00002 34.2045 8.91669C34.3689 8.83335 34.5333 8.75002 34.6156 8.58335L34.6978 8.66669L34.2867 9.25002L32.56 8.58335L32.6422 8.41669L32.7245 8.50002H32.8067C32.8067 8.50002 32.8889 8.50002 32.8889 8.41669L33.7933 6.00002V5.91669L33.7111 5.83335H33.6289L33.7933 5.75002ZM31.1622 5.08335L31.9022 5.25002V5.41669H31.7378V7.66669L32.6422 5.83335C32.6422 5.75002 32.7245 5.66669 32.6422 5.66669L32.56 5.58335H32.4778V5.41669L33.1356 5.58335V5.75002H32.8889C32.8889 5.75002 32.8889 5.83335 32.8067 5.91669L31.4911 8.41669H31.3267V5.66669V5.50002C31.3267 5.41669 31.2445 5.41669 31.2445 5.41669H31.1622V5.08335ZM28.6133 7.83335H29.1067V7.75002L29.2711 5.25002V5.16669H28.7778V5.00002H30.2578V5.16669H29.7645L29.6822 5.25002L29.5178 7.75002V7.83335H30.0111V8.00002L28.6133 7.91669V7.83335ZM26.3111 5.00002L27.6267 7.25002L27.4622 5.16669V5.08335H27.2156V4.91669H27.9556V5.08335H27.7089V5.16669L27.8733 8.00002H27.7911L26.3111 5.41669V7.83335C26.3111 7.91669 26.3111 7.91669 26.3933 7.91669H26.64V8.08335L25.9 8.16669V8.00002H26.1467V7.91669L25.9822 5.41669C25.9822 5.33335 25.9822 5.33335 25.9 5.33335H25.5711V5.16669L26.3111 5.00002ZM23.8445 5.50002V5.66669H23.7622C23.68 5.66669 23.68 5.66669 23.68 5.75002V5.83335L24.1733 7.83335C24.2556 8.08335 24.3378 8.16669 24.42 8.25002C24.5022 8.33335 24.6667 8.33335 24.8311 8.25002C24.9956 8.25002 25.16 8.08335 25.2422 8.00002C25.3245 7.83335 25.3245 7.66669 25.3245 7.50002L24.8311 5.50002C24.8311 5.41669 24.8311 5.41669 24.7489 5.41669H24.5845V5.25002L25.2422 5.08335V5.25002H25.16C25.0778 5.25002 25.0778 5.25002 25.0778 5.33335V5.41669L25.4067 7.50002C25.4889 7.75002 25.4067 7.91669 25.3245 8.08335C25.16 8.25002 24.9956 8.33335 24.8311 8.41669H24.5845C24.42 8.41669 24.3378 8.41669 24.2556 8.33335C24.0089 8.33335 23.9267 8.16669 23.8445 7.83335L23.3511 5.83335C23.3511 5.75002 23.3511 5.75002 23.2689 5.75002H23.1045V5.58335L23.8445 5.50002ZM18.6645 7.58335L20.8022 9.08335L19.8156 7.25002L19.7333 7.16669H19.6511L19.4867 7.25002L19.4045 7.16669L20.0622 6.83335L20.1445 6.91669L19.98 7.00002L19.8978 7.08335V7.16669L21.2133 9.66669L21.1311 9.75002L18.6645 8.08335L19.8156 10.1667L19.8978 10.25H19.98L20.1445 10.1667L20.2267 10.25L19.5689 10.5834L19.4867 10.5L19.6511 10.4167C19.7333 10.4167 19.7333 10.3334 19.7333 10.3334V10.25L18.5 8.00002L18.4178 7.91669H18.2533L18.1711 8.00002L18.0889 7.91669L18.6645 7.58335ZM16.8556 8.66669L19.0756 10.5C19.1578 10.5 19.1578 10.5834 19.24 10.5834H19.3222L19.4045 10.5L19.4867 10.5834L18.9111 11.0834L18.8289 11L18.9111 10.9167C18.9933 10.9167 18.9933 10.8334 18.9933 10.8334C18.9933 10.8334 18.9111 10.75 18.9111 10.6667L18.3356 10.1667L17.76 10.6667L18.0067 11.3334C18.0889 11.4167 18.0889 11.5 18.1711 11.5H18.3356L18.4178 11.4167L18.5 11.5L17.9245 11.9167L17.8422 11.8334L17.9245 11.75L18.0067 11.6667V11.5L16.8556 8.91669V8.66669ZM14.1422 11.4167L14.7178 10.8334L14.8 10.9167L14.7178 11L14.6356 11.0834V11.1667L15.4578 11.9167L16.1978 11.1667L15.3756 10.4167L15.2933 10.3334C15.2933 10.3334 15.2111 10.3334 15.2111 10.4167L15.1289 10.5L15.0467 10.4167L15.54 9.83335L15.6222 9.91669V10L15.54 10.0834V10.1667L17.3489 11.9167C17.3489 11.9167 17.4311 12 17.4311 11.9167C17.4311 11.9167 17.5133 11.9167 17.5133 11.8334L17.5956 11.75L17.6778 11.8334L17.1845 12.4167L17.2667 12.3334C17.2667 12.3334 17.2667 12.25 17.1845 12.25L16.28 11.3334L15.54 12.0834L16.4445 13C16.4445 13 16.5267 13.0834 16.5267 13C16.5267 13 16.6089 13 16.6089 12.9167L16.6911 12.8334L16.7733 12.9167L16.1978 13.5L16.1156 13.4167L16.1978 13.3334L16.28 13.25C16.28 13.25 16.28 13.1667 16.1978 13.1667L14.3889 11.4167L14.3067 11.3334C14.3067 11.3334 14.2245 11.3334 14.2245 11.4167L14.1422 11.5V11.4167ZM12.9089 12.9167L12.9911 13L12.9089 13.0834V13.1667C12.9089 13.1667 12.9089 13.25 12.9911 13.25L14.6356 14.5C14.8 14.6667 14.9645 14.6667 15.1289 14.6667C15.2111 14.6667 15.3756 14.5834 15.4578 14.4167C15.54 14.25 15.6222 14.0834 15.54 13.9167C15.54 13.75 15.4578 13.5834 15.2933 13.5L13.6489 12.25H13.5667C13.5667 12.25 13.4845 12.25 13.4845 12.3334L13.4022 12.5L13.32 12.4167L13.7311 11.8334L13.8133 11.9167L13.7311 12V12.0834C13.7311 12.0834 13.7311 12.1667 13.8133 12.1667L15.4578 13.4167C15.6222 13.5834 15.7867 13.75 15.7867 13.9167C15.7867 14.1667 15.7867 14.3334 15.6222 14.5C15.4578 14.6667 15.3756 14.8334 15.1289 14.8334H14.9645C14.8 14.8334 14.6356 14.75 14.5533 14.6667L12.9089 13.4167H12.8267C12.8267 13.4167 12.7445 13.4167 12.7445 13.5L12.6622 13.5834L12.58 13.5L12.9089 12.9167ZM11.4289 15.4167L11.5111 15.5V15.6667C11.5111 15.6667 11.5111 15.75 11.5933 15.75L13.4022 16.4167L12.2511 15.4167L11.9222 15.25H11.84C11.84 15.25 11.7578 15.25 11.7578 15.3334V15.4167L11.5111 15.25L11.84 14.6667L11.9222 14.75V14.9167C11.9222 14.9167 11.9222 15 12.0045 15L13.7311 15.6667L12.3333 14.5834C12.2511 14.5834 12.2511 14.5 12.2511 14.5834C12.2511 14.5834 12.1689 14.5834 12.1689 14.6667V14.75L12.0867 14.6667L12.3333 14.1667L12.4156 14.25V14.4167C12.4156 14.4167 12.4156 14.5 12.4978 14.5L14.7178 16.25L14.6356 16.3334L12.9089 15.6667L14.3889 16.9167L14.3067 17L11.6756 16.0834H11.5933C11.5933 16.0834 11.5111 16.0834 11.5111 16.1667V16.25L11.4289 16.1667V15.4167ZM22.6111 40.6667L22.6933 40.75L22.6111 40.8334L22.4467 40.75H22.2822L22.2 40.8334L22.1178 41.0834L22.0356 41.3334V41.75L22.1178 41.6667L22.2 41.5L22.2822 41.4167L22.3645 41.25V41.4167L22.2822 41.5834L22.2 41.6667V42L21.8711 42.3334L21.7889 42.5H21.6245V42.3334L21.7067 42.0834L21.7889 41.8334V41.6667L21.8711 41.5H20.0622L19.8978 41.4167H19.7333L19.5689 41.25L19.6511 41.1667L19.8156 41.25L20.0622 41.3334L20.3911 41.4167H21.2133L21.3778 41.3334L21.46 41.25L21.5422 41.0834L21.46 41H21.2956L21.1311 41.0834H20.9667L20.8845 41V40.8334L20.9667 40.75L21.0489 40.6667L21.1311 40.5L21.0489 40.4167H20.5556L20.4733 40.3334L20.3911 40.1667H20.4733L20.5556 40.25H20.6378L20.8845 40.3334L21.2133 40.4167H21.3778L21.6245 40.5L21.7889 40.5834H22.0356L22.2 40.3334L22.3645 40.0834L22.5289 39.8334L22.6111 39.5834L22.6933 39.4167L22.8578 39.5834L22.94 39.6667V39.8334L22.8578 40L22.6111 40.25L22.4467 40.5V40.5834L22.6111 40.6667ZM20.72 41L20.6378 41.0834H20.5556L20.4733 41L20.3911 40.9167L20.5556 40.8334H20.72L20.8022 40.75H20.9667V40.8334L20.72 41ZM21.46 39.8334H22.2822V40L22.2 40.1667H21.8711L21.7067 40.0834L21.5422 40L21.46 39.8334ZM23.3511 40.6667L23.1867 40.8334H23.0222L22.94 40.75V40.6667L23.0222 40.5834L23.1045 40.5V40.3334L23.1867 40.25L23.3511 40.3334V40.6667ZM26.5578 41.9167V42.0834L26.4756 42.1667L26.3933 42.3334L26.3111 42.4167L26.2289 42.5L26.1467 42.6667V42.8334L26.0645 43V43.1667L25.9822 43.3334H25.8178L25.7356 43.25L25.6533 43.0834L25.7356 42.9167L25.8178 42.75V42.5834L25.9 42.4167V42.25L25.9822 42.0834L26.0645 41.9167V41.5H26.1467L26.2289 41.6667V41.75H26.3933L26.5578 41.9167ZM26.5578 41.0834L26.4756 41.1667L26.3933 41.3334L26.3111 41.4167V41.0834L26.3933 40.8334V40.6667L26.4756 40.5834L26.5578 40.6667V41.0834ZM27.7911 43.3334L27.7089 43.4167H27.6267L27.5445 43.3334H27.38L27.5445 43.25L27.6267 43.0834V43L27.5445 42.8334H27.6267L27.7089 42.9167L27.7911 43L27.8733 43.0834L27.7911 43.3334ZM28.12 40.8334V40.9167L28.0378 41L27.9556 41.0834H27.8733L27.7911 41.1667L27.7089 41.25L27.6267 41.3334V41.5H27.7911L27.8733 41.5834L27.9556 41.6667L27.8733 41.75H27.7089V42.0834L27.6267 42.1667L27.5445 42.25V42.5834H27.7089L27.7911 42.5V42.3334H28.0378L28.12 42.4167V42.5H27.9556V42.5834L27.8733 42.6667L27.7089 42.75H27.38V42.9167L27.2978 43L27.1333 43.0834L27.0511 43.1667H26.8867L26.9689 43.0834L27.0511 43L27.1333 42.9167V42.75H26.9689V42.6667H27.2156V42.5L27.1333 42.3334H27.0511L26.9689 42.4167L26.8867 42.5H26.7222V42.3334L26.8045 42.25L26.8867 42.1667L26.9689 42L27.0511 41.8334L27.1333 41.75V41.5834H27.0511L26.9689 41.5L26.8867 41.4167L26.9689 41.3334H27.0511L27.1333 41.25H27.2156L27.2978 41.1667L27.38 41.0834V40.8334H27.4622L27.5445 40.9167V41.0834H27.6267V40.75L27.7089 40.8334V41H27.8733L27.9556 40.8334V40.75L28.0378 40.6667L28.12 40.5834H28.2022L28.2845 40.6667L28.12 40.8334ZM32.1489 42.5L31.9022 42.5834H31.82V42.4167L31.7378 42.3334H31.4911V42.5834L31.4089 42.6667L31.2445 42.75L31.1622 42.8334H31.08V42.75L31.1622 42.6667L31.2445 42.5834L31.4089 42.4167L31.4911 42.25V42.0834H31.4089L31.2445 42.1667L31.1622 42.25H31.08L30.9978 42.1667L30.9156 42.0834L30.9978 41.9167H31.1622L31.2445 41.8334L31.3267 41.75L31.4089 41.6667V41.3334L31.3267 41.25V41.1667H31.4911L31.5733 41.25L31.6556 41.3334V41.75H31.7378L31.82 41.6667H31.9022L31.9845 41.75L32.0667 41.8334L31.9845 41.9167L31.82 42L31.7378 42.0834L31.6556 42.1667V42.3334H32.1489L32.2311 42.4167L32.3133 42.5H32.1489ZM34.5333 40.75V40.5834L34.4511 40.4167L34.3689 40.25H34.5333V39.9167L34.6156 40H34.78L34.8622 40.25V40.3334L34.6978 40.4167V40.5L34.78 40.5834V40.6667L34.6978 40.8334L34.5333 40.75ZM36.1778 41.0834L36.26 41.25L36.3422 41.4167L36.4245 41.5834V41.75L36.3422 41.8334L36.26 41.9167H35.9311L35.7667 41.8334V41.75H35.8489L36.0133 41.6667V41.5834L35.9311 41.5L35.8489 41.4167L35.7667 41.5L35.6845 41.5834L35.6022 41.6667H35.6845L35.6022 41.75H35.4378L35.3556 41.6667V41.5834L35.52 41.5L35.6845 41.3334L35.7667 41.1667V41.0834L35.6845 40.9167V40.8334L35.7667 40.6667L35.8489 40.5834L35.9311 40.4167L36.0133 40.25L35.9311 40.1667L35.7667 40.25V40.3334L35.6845 40.5L35.6022 40.6667L35.4378 40.8334L35.3556 41L35.2733 41.0834L35.1911 41.25L35.1089 41.3334L35.0267 41.4167L34.9445 41.5H34.6978L34.6156 41.4167V41.3334L34.6978 41.25L34.78 41.1667L34.9445 41.0834L35.1911 40.8334L35.4378 40.5L35.52 40.3334V40.25L35.3556 40.3334H35.1911V40.1667L35.1089 40.0834L35.0267 40V39.9167H35.1089L35.2733 39.8334V39.5834H35.6022L35.6845 39.5V39.4167L35.7667 39.3334V39.25H35.6022L35.52 39.3334L35.4378 39.4167L35.3556 39.5834H35.1911L35.1089 39.6667H35.0267L34.9445 39.5834L35.0267 39.5V39.4167L34.9445 39.3334L34.8622 39.25V39.1667H35.1911V38.6667L35.2733 38.5834H35.4378L35.52 38.6667V38.9167L35.4378 39V39.0834H35.52L35.6022 39L35.6845 38.9167V38.75H35.8489L36.0133 38.8334L36.0956 38.9167V39.0834L36.0133 39.25L35.9311 39.3334V39.4167L35.8489 39.5834V39.75L35.7667 39.9167V40.0834H35.8489L35.9311 40L36.0133 39.9167H36.0956L36.26 40L36.1778 40.0834V40.25L36.0956 40.3334L36.0133 40.4167V40.6667L36.0956 40.75L36.1778 40.8334L36.26 40.75H36.3422L36.4245 40.8334L36.5067 40.9167L36.4245 41L36.3422 41.0834H36.1778ZM45.6333 21.5834C45.6333 21.6667 45.4689 22.9167 45.3867 23.5834C44.8933 25.75 43.4956 26.25 42.8378 26.5V31.5834H43.4956L44.6467 33.4167H45.2222L44.4 35H39.4667C39.4667 35 38.8911 35.5834 38.3156 36C37.8222 36.3334 37.3289 36.75 37.2467 36.75C34.6156 38.75 31.4089 39.9167 27.8733 39.9167C24.5022 39.9167 21.2956 38.8334 18.7467 36.9167C18.6645 36.9167 18.2533 36.5 17.8422 36.1667C17.2667 35.6667 16.7733 35 16.7733 35H16.9378H11.7578L10.8533 33.3334H11.5111C11.7578 32.8334 12.3333 31.8334 12.3333 31.75C12.3333 31.75 12.9089 31.75 12.9089 31.6667V26.5834C12.4978 26.3334 12.0867 26.25 11.5933 25.75C10.9356 25 10.6889 24.6667 10.36 23.4167C10.1133 22.4167 9.9489 21.5 10.0311 21.5C10.0311 21.5 10.36 21.9167 10.6067 22.0834C11.1 22.5 11.84 23.0834 12.1689 23.25C12.8267 23.6667 13.0733 23.6667 13.0733 23.6667V23.3334C13.4845 15.3334 20.0622 8.91669 28.0378 8.91669C36.1778 8.91669 42.7556 15.5 43.0022 23.6667C43.0845 23.5834 43.66 23.25 43.8245 23.1667C43.9889 23.0834 44.6467 22.5 44.7289 22.4167C44.8933 22.4167 45.7156 21.5834 45.6333 21.5834ZM44.0711 14.1667L44.1533 14.0834L44.5645 14.8334H44.4V14.75C44.4 14.6667 44.3178 14.6667 44.3178 14.6667C44.3178 14.6667 44.2356 14.6667 44.2356 14.75L43.3311 15.75L44.7289 15.5834C44.8111 15.5834 44.8111 15.5 44.8111 15.5V15.25L44.8933 15.1667L45.2222 15.8334L45.14 15.9167V15.8334C45.14 15.75 45.0578 15.75 45.0578 15.75H44.8111L43.3311 15.9167L42.4267 16.4167L42.3445 16.5V16.5834L42.4267 16.75L42.3445 16.8334L41.9333 16L42.0156 15.9167L42.0978 16.0834C42.0978 16.1667 42.18 16.1667 42.18 16.1667H42.2622L43.0845 15.75L44.1533 14.5C44.1533 14.4167 44.2356 14.4167 44.2356 14.3334C44.0711 14.25 44.0711 14.25 44.0711 14.1667ZM42.6733 12L43.66 13.4167L43.1667 13.9167L43.0845 13.8334C43.2489 13.5834 43.3311 13.5 43.3311 13.4167C43.3311 13.3334 43.3311 13.25 43.2489 13.0834L43.1667 12.9167L43.0022 13L41.0289 14.4167L40.9467 14.5V14.5834L41.0289 14.75L40.9467 14.8334L40.3711 14.0834L40.4533 14L40.5356 14.1667C40.5356 14.25 40.6178 14.25 40.6178 14.25H40.7L42.6733 12.75L42.7556 12.6667L42.6733 12.5834C42.5911 12.4167 42.5089 12.4167 42.4267 12.3334C42.3445 12.3334 42.18 12.3334 41.9333 12.4167L41.8511 12.3334L42.6733 12Z" fill="#04705E"/>
<path d="M21.5422 40.5833H21.3778L21.2956 40.6666L21.3778 40.75L21.46 40.8333L21.5422 40.9166L21.6245 40.8333L21.7067 40.75V40.6666L21.5422 40.5833ZM27.2978 41.6666H27.38L27.4622 41.5833L27.38 41.4166H27.2978L27.2156 41.5H27.1333L27.2156 41.5833L27.2978 41.6666ZM21.8711 40.6666V40.75L21.7889 40.9166L21.7067 41L21.7889 41.1666L21.8711 41.25V41.1666L21.9533 41.0833L22.0356 40.9166V40.6666H21.9533H21.8711Z" fill="black"/>
</svg>
