<svg width="78" height="78" viewBox="0 0 78 78" fill="none" xmlns="http://www.w3.org/2000/svg">
<path d="M39 0C17.416 0 0 17.5649 0 39C0 60.4351 17.5649 78 39 78C60.4351 78 78 60.4351 78 39C78 17.5649 60.4351 -8.72197e-08 39 0ZM39 76.5114C18.3092 76.5114 1.33969 59.6908 1.33969 39C1.33969 18.3092 18.1603 1.48855 38.8511 1.48855C59.542 1.48855 76.3626 18.3092 76.3626 39C76.5115 59.6908 59.542 76.5114 39 76.5114Z" fill="#2A2E82"/>
<path d="M13.8435 38.1069V37.8091C14.5878 24.5611 25.603 13.8435 39 13.8435C52.6946 13.8435 63.8588 24.8588 64.3053 38.4046H65.3473C65.0496 24.2633 53.2901 12.8015 39 12.8015C24.8588 12.8015 13.3969 24.1145 12.8015 38.1069V38.4046L13.8435 38.1069Z" fill="#2A2E82"/>
<path d="M19.0533 12.2061L20.0953 14.5878L21.1373 13.8435L19.0533 12.2061ZM54.1831 11.1642C54.4808 11.313 54.7785 11.313 55.0762 11.313C55.374 11.313 55.6717 11.0153 55.8205 10.5687C55.9694 10.271 56.1182 9.97331 55.9694 9.6756C55.9694 9.37789 55.6717 9.08018 55.2251 8.93133L54.9274 8.78247H54.7785C54.7785 8.78247 54.6297 8.78247 54.6297 8.93133L53.5877 10.7176L54.1831 11.1642Z" fill="#04705E"/>
<path d="M56.7137 58.2023C56.416 58.2023 55.374 59.2443 53.8855 60.2862C52.8435 61.0305 51.2061 61.9236 51.2061 61.9236C47.6336 63.8588 43.4656 64.9007 39.1488 64.9007C34.6832 64.9007 29.9198 63.5611 26.1985 61.6259C24.7099 60.7328 22.6259 59.2443 21.7328 58.2023H20.2443C20.3931 58.3511 20.9885 59.0954 21.7328 59.8397C22.6259 60.5839 23.8168 61.4771 23.8168 61.6259C28.1336 64.4542 33.3435 66.2404 39 66.2404C44.6565 66.2404 50.0153 64.4542 54.332 61.4771C54.332 61.4771 55.6717 60.4351 56.8626 59.6908C57.6069 59.0954 58.2023 58.6488 58.5 58.3511H57.9046L56.7137 58.2023Z" fill="#2A2E82"/>
<path d="M45.4007 62.0726H44.5076C44.5076 62.0726 44.8053 62.2214 45.103 62.2214C45.2518 62.2214 45.4007 62.2214 45.4007 62.0726C45.6984 62.0726 45.8473 62.0726 45.8473 61.9237C45.9961 61.7749 45.9961 61.7749 45.9961 61.626C45.9961 61.4771 45.9961 61.4771 45.8473 61.3283C45.8473 61.3283 45.6984 61.1794 45.5496 61.1794C45.6984 61.0306 45.8473 61.0306 45.8473 61.0306L45.9961 60.8817C45.9961 60.7329 45.9961 60.7329 45.8473 60.584C45.6984 60.584 45.5496 60.4352 45.4007 60.4352C45.103 60.4352 44.9541 60.584 44.6564 60.7329V60.8817L44.8053 60.7329C44.9541 60.7329 44.9541 60.584 45.103 60.584C45.4007 60.584 45.5496 60.7329 45.5496 60.8817C45.5496 61.0306 45.5496 61.0306 45.4007 61.1794C45.2518 61.1794 45.103 61.3283 44.9541 61.3283H45.4007C45.5496 61.3283 45.5496 61.4771 45.6984 61.4771C45.8473 61.626 45.8473 61.7749 45.6984 61.9237C45.5496 61.9237 45.5496 61.9237 45.4007 62.0726ZM40.7862 62.0726H40.4885C40.935 62.0726 41.2328 61.9237 41.5305 61.7749H41.6793C42.1259 61.4771 42.2747 61.1794 42.1259 60.7329C42.1259 60.584 41.977 60.584 41.977 60.4352C41.8282 60.2863 41.6793 60.1375 41.2328 60.1375C40.935 60.1375 40.7862 60.1375 40.6373 60.2863C40.3396 60.584 40.3396 60.7329 40.3396 60.8817C40.3396 61.0306 40.3396 61.0306 40.4885 61.1794C40.4885 61.3283 40.6373 61.3283 40.7862 61.3283C40.935 61.4771 41.2328 61.4771 41.5305 61.3283C41.5305 61.3283 41.6793 61.3283 41.8282 61.1794C41.3816 61.7749 41.2328 61.9237 40.7862 62.0726ZM41.2328 61.3283H41.0839C40.935 61.3283 40.935 61.1794 40.7862 61.1794C40.7862 61.0306 40.6373 61.0306 40.6373 60.8817V60.584C40.6373 60.4352 40.7862 60.4352 41.0839 60.4352C41.2328 60.4352 41.3816 60.4352 41.5305 60.584C41.6793 60.7329 41.6793 60.8817 41.6793 61.3283H41.2328ZM32.748 62.0726H32.4503H33.4923H33.3434H33.1946V60.2863L32.4503 60.4352H32.8969V61.626C32.748 61.9237 32.748 62.0726 32.748 62.0726ZM36.3205 61.7749C36.3205 61.9237 36.3205 62.0726 36.4694 62.0726C36.6183 62.2214 36.7671 62.2214 37.0648 62.2214C37.3625 62.2214 37.5114 62.2214 37.6602 62.0726C37.8091 61.9237 37.8091 61.9237 37.8091 61.7749C37.8091 61.626 37.6602 61.4771 37.3625 61.3283H37.2137C37.3625 61.3283 37.5114 61.1794 37.6602 61.1794C37.8091 61.0306 37.8091 61.0306 37.8091 60.8817C37.8091 60.7329 37.8091 60.7329 37.6602 60.584C37.5114 60.4352 37.3625 60.4352 37.0648 60.4352H36.6183C36.3205 60.4352 36.3205 60.584 36.3205 60.8817C36.3205 61.0306 36.3205 61.0306 36.4694 61.1794C36.4694 61.1794 36.6183 61.3283 36.7671 61.3283C36.4694 61.4771 36.3205 61.626 36.3205 61.7749ZM36.7671 60.8817C36.6183 60.7329 36.6183 60.7329 36.6183 60.584C36.6183 60.584 36.6183 60.4352 36.7671 60.4352C36.916 60.4352 36.916 60.2863 37.2137 60.2863C37.3625 60.2863 37.5114 60.2863 37.5114 60.4352L37.6602 60.584C37.6602 60.7329 37.6602 60.8817 37.5114 60.8817C37.3625 60.8817 37.3625 61.0306 37.2137 61.0306C37.0648 61.0306 36.916 61.0306 36.7671 60.8817ZM36.6183 61.4771C36.6183 61.4771 36.7671 61.3283 36.916 61.3283C37.2137 61.4771 37.3625 61.4771 37.3625 61.626C37.5114 61.7749 37.5114 61.7749 37.5114 61.9237V62.0726C37.3625 62.2214 37.2137 62.2214 37.0648 62.2214C36.916 62.2214 36.7671 62.2214 36.6183 62.0726V61.9237V61.4771Z" fill="#2A2E82"/>
<path d="M48.8244 38.4045H49.7175V41.3816H48.8244V38.4045ZM46.4427 38.4045H47.3358V41.3816H46.4427V38.4045ZM50.7595 41.5305V39.2977L50.3129 38.4045H49.8663V41.5305H50.7595ZM58.0534 36.7671H50.9083L51.8015 37.3626H57.4579L58.0534 36.7671ZM45.2518 38.4045H46.145V41.3816H45.2518V38.4045ZM27.3893 37.8091L27.2404 38.1068H50.1641V37.8091H27.3893ZM56.7137 38.2557L57.0114 37.8091H52.248L52.8434 38.2557H56.7137ZM47.6335 38.4045H48.5267V41.3816H47.6335V38.4045ZM20.8396 38.2557H24.7099L25.1564 37.8091H20.3931C20.6908 38.2557 20.6908 38.2557 20.8396 38.2557ZM37.958 26.645H39.4465C39.7442 26.0496 39.7442 25.603 39.8931 24.561C39.7442 23.9656 39.8931 22.7748 39.2976 22.1794C39.5954 21.7328 39.7442 22.0305 39.8931 21.4351C39.8931 20.9885 39.7442 20.9885 39.5954 20.6908H37.8091C37.6602 20.9885 37.6602 21.1374 37.6602 21.4351C37.6602 22.0305 37.958 21.8816 38.1068 22.1794C37.6602 22.7748 37.5114 24.1145 37.5114 24.561C37.6602 25.603 37.5114 26.0496 37.958 26.645ZM37.958 19.9465H39.2976V20.3931H37.958V19.9465ZM55.9694 58.2023H22.1793L23.0725 58.6488H54.9274L55.9694 58.2023ZM9.97322 57.9045H68.0266L68.6221 57.1603H9.52666C9.52666 57.3091 9.97322 57.9045 9.97322 57.9045ZM26.3473 36.7671H19.4999L20.0954 37.3626L25.603 37.5114L26.3473 36.7671ZM41.6793 35.1297C41.977 35.1297 42.1259 34.9809 42.1259 34.832V34.5343C42.1259 34.3855 41.977 34.2366 41.6793 34.2366H39.7442C39.4465 34.2366 39.2976 34.3855 39.2976 34.5343V34.6832C39.2976 34.832 39.4465 34.9809 39.7442 34.9809H41.6793V35.1297ZM45.2518 35.1297C45.5496 35.1297 45.6984 34.9809 45.6984 34.832V34.5343C45.6984 34.3855 45.5496 34.2366 45.2518 34.2366H43.3167C43.019 34.2366 42.8702 34.3855 42.8702 34.5343V34.6832C42.8702 34.832 43.019 34.9809 43.3167 34.9809H45.2518V35.1297ZM48.9732 35.874C49.2709 35.874 49.4198 35.874 49.5686 35.5763V35.4274C49.5686 35.2786 49.4198 34.9809 49.2709 34.9809L47.3358 34.5343C47.0381 34.5343 46.8892 34.5343 46.7404 34.832V34.9809C46.7404 35.1297 46.8893 35.4274 47.0381 35.4274L48.9732 35.874ZM9.3778 57.0114H68.6221L69.2175 56.2671H8.93124C8.78238 56.1183 9.3778 57.0114 9.3778 57.0114Z" fill="#2A2E82"/>
<path d="M51.3549 34.9809L52.3969 34.0877L52.8434 33.4923L53.7366 31.8549L52.8434 32.5992L51.5037 32.8969H50.4618L49.2709 32.5992L48.8244 32.1526L48.5266 31.4084L48.8244 30.2175C48.8244 30.0687 48.9732 28.729 48.9732 28.729C48.8244 29.1755 48.5266 29.4732 47.9312 29.771C47.4847 30.0687 46.8892 30.3664 46.5915 30.5152C46.145 30.6641 46.145 30.6641 45.2518 30.6641L43.9121 30.2175V28.4313L44.3587 27.9847V26.3473H43.019L42.7213 27.0916H39.5953V26.7939H37.9579V27.0916H34.832L34.6831 26.3473H33.3434V27.9847L33.79 28.4313V30.0687L33.0457 30.3664C32.748 30.5152 32.3015 30.6641 31.8549 30.6641C31.2595 30.6641 29.3244 29.4732 28.8778 28.729C28.8778 28.5801 28.8778 29.9198 29.0266 30.2175L29.3244 31.2595L29.0266 32.1526L28.8778 32.3015L28.4312 32.5992L27.0915 33.0458H26.0495L25.1564 32.8969L24.8587 32.7481L23.9656 32.0038L24.7099 33.6412L25.0076 33.9389L25.7518 34.832L26.4961 35.2786C26.645 35.4274 27.9847 35.4274 27.8358 35.4274C27.6869 35.2786 29.0266 34.6832 28.8778 34.6832L30.9618 33.9389H47.3358L49.2709 34.6832L50.3129 35.2786L51.3549 34.9809Z" fill="#2A2E82"/>
<path d="M66.0916 39L64.6031 39.1489L63.2634 38.7023L61.9237 37.3626L59.9886 33.6412L58.2023 37.3626L56.7137 38.7023L55.374 39.1489L53.8855 39L52.6947 38.5534L50.0153 36.3206L50.7595 38.8512L51.8015 40.4886L52.8435 41.6794L53.1412 41.8283H24.4122L24.5611 41.6794L25.7519 40.4886L26.7939 38.8512L27.5382 36.3206L24.8588 38.5534L23.5191 39L22.0305 39.1489L20.6908 38.7023L19.3511 37.3626L17.416 33.6412L15.6298 37.3626L14.1412 38.7023L12.8015 39.1489L11.313 39L10.1221 38.5534L7.44275 36.3206L8.18702 38.8512L9.08015 40.4886L10.271 41.5305L11.0153 42.126L11.9084 42.5725H65.4962L67.1336 41.5305L68.3244 40.4886L69.3664 38.8512L70.1107 36.3206L67.4313 38.5534L66.0916 39Z" fill="#2A2E82"/>
<path d="M38.1068 35.1297C38.4046 35.1297 38.5534 34.9808 38.5534 34.832V34.5343C38.5534 34.3854 38.4046 34.2366 38.1068 34.2366H36.1717C35.874 34.2366 35.7252 34.3854 35.7252 34.5343V34.6831C35.7252 34.832 35.874 34.9808 36.1717 34.9808H38.1068V35.1297ZM51.0572 39.7442V41.5305H51.9504V40.935L51.0572 39.7442ZM27.3893 53.1412H50.6107L50.4618 52.8434H27.5381L27.3893 53.1412ZM44.061 38.4045H44.9542V41.3816H44.061V38.4045ZM36.916 47.187H40.9351V51.3549H36.916V47.187ZM25.603 41.5305H26.4962V39.7442L25.603 40.935V41.5305ZM26.3473 55.5228H51.6526L51.5038 55.0763H26.4962L26.3473 55.5228ZM27.0916 53.8854H50.9084L50.7595 53.5877H27.2404L27.0916 53.8854ZM27.8359 52.0992L27.687 52.3969H50.1641L50.0152 52.0992H27.8359ZM26.7939 54.7786H51.2061L51.0572 54.332H26.9427L26.7939 54.7786Z" fill="#2A2E82"/>
<path d="M65.0496 44.3588H53.1412V44.0611H64.9007V42.8702H39.4465V42.7214H38.2557V42.8702H12.5038V44.0611H24.5611V44.3588H12.5038V53.1412H11.1641L9.97327 55.5229H24.5611L26.0496 51.9504H24.8588V51.5038H54.0343V51.9504H51.9504L53.5878 55.374H68.1756L66.5381 52.8435H64.9007V44.3588H65.0496ZM23.9656 51.355V44.9542H24.5611V50.7595C24.5611 51.0573 24.7099 51.355 24.7099 51.355H23.9656ZM52.2481 44.0611V44.3588H47.6336V44.2099V44.0611H52.2481ZM46.7404 44.0611V44.3588H46.145V44.2099V44.0611H46.7404ZM39.4465 44.0611H45.2519V44.3588H39.4465V44.0611ZM38.2557 44.0611V44.3588H32.4504V44.2099V44.0611H38.2557ZM31.5572 44.0611V44.3588H30.9618V44.2099V44.0611H31.5572ZM30.2175 44.0611V44.3588H25.4542V44.2099V44.0611H30.2175ZM25.1565 51.355C25.3053 51.355 25.3053 51.0573 25.3053 50.7595V46.4427L26.645 44.9542H28.5801L29.9198 46.4427V50.7595C29.9198 51.0573 30.0687 51.355 30.0687 51.355H25.1565ZM30.813 51.355C30.9618 51.355 30.9618 51.0573 30.9618 50.7595V44.9542H31.5572V50.7595C31.5572 51.0573 31.7061 51.355 31.7061 51.355H30.813ZM41.2328 51.355H36.4694V46.7405H41.2328V51.355ZM41.5305 51.355V46.4427H36.3206V51.2061H32.3015C32.4504 51.2061 32.4504 50.9084 32.4504 50.6107V46.4427L33.7901 44.9542H43.9122L45.2519 46.4427V50.7595C45.2519 51.0573 45.4007 51.355 45.4007 51.355H41.5305ZM45.9962 51.355C46.145 51.355 46.145 51.0573 46.145 50.7595V44.9542H46.7404V50.7595C46.7404 51.0573 46.8893 51.355 46.8893 51.355H45.9962ZM47.4847 51.355C47.6336 51.355 47.6336 51.0573 47.6336 50.7595V46.4427L48.9733 44.9542H50.7595L52.0992 46.4427V51.355H47.4847ZM53.8855 51.355H52.9924V44.9542H53.8855V51.355ZM34.832 38.4046H35.7252V41.3817H34.832V38.4046ZM30.2175 38.4046H31.1107V41.3817H30.2175V38.4046ZM32.5992 38.4046H33.4923V41.3817H32.5992V38.4046ZM33.6412 38.4046H34.5343V41.3817H33.6412V38.4046ZM37.2137 38.4046H38.1069V41.3817H37.2137V38.4046ZM36.0229 38.4046H36.916V41.3817H36.0229V38.4046ZM41.8282 38.4046H42.7214V41.3817H41.8282V38.4046ZM38.4046 38.4046H39.2977V41.3817H38.4046V38.4046ZM43.0191 38.4046H43.9122V41.3817H43.0191V38.4046ZM40.6374 38.4046H41.5305V41.3817H40.6374V38.4046ZM39.4465 38.4046H40.3397V41.3817H39.4465V38.4046ZM31.4084 38.4046H32.3015V41.3817H31.4084V38.4046ZM26.7939 39.4466V41.5305H27.5382V38.4046H27.2404L26.7939 39.4466ZM29.4733 35.7252L31.2595 35.2786C31.5572 35.2786 31.7061 34.9809 31.5572 34.8321V34.6832C31.5572 34.5344 31.2595 34.3855 31.1107 34.5344L29.3244 34.9809C29.0267 34.9809 28.8778 35.2786 29.0267 35.4275V35.5763C29.0267 35.7252 29.1756 35.874 29.4733 35.7252ZM27.8359 38.4046H28.729V41.3817H27.8359V38.4046ZM34.6832 35.1298C34.9809 35.1298 35.1298 34.9809 35.1298 34.8321V34.6832C35.1298 34.5344 34.9809 34.3855 34.6832 34.3855H32.8969C32.5992 34.3855 32.4504 34.5344 32.4504 34.6832V34.8321C32.4504 34.9809 32.5992 35.1298 32.8969 35.1298H34.6832ZM27.687 36.6183L27.5382 37.3626H50.0152L49.8664 36.6183H27.687ZM29.0267 38.4046H29.9198V41.3817H29.0267V38.4046Z" fill="#2A2E82"/>
<path d="M37.6603 70.5573L37.5114 70.7061V70.855H37.958L38.1068 70.7061L37.958 70.5573H37.6603ZM37.5114 71.0038H37.3625V71.3015H37.5114L37.8091 71.1527V71.0038H37.6603H37.5114Z" fill="black"/>
<path d="M39.0001 2.82825C19.2024 2.82825 2.97717 19.0534 2.97717 39C2.97717 45.9962 5.06114 52.6947 8.48481 58.2023L9.22908 59.3931C9.52679 59.9885 9.97336 60.4351 10.4199 61.0305C16.9695 69.5153 27.3894 75.0229 39.0001 75.0229C50.3131 75.0229 60.2863 69.6641 67.1337 61.626L68.9199 59.0954C69.0688 58.7977 69.3665 58.6489 69.5153 58.3511C73.0879 52.5458 75.3207 46.145 75.3207 38.8511C75.1718 19.0534 58.9466 2.82825 39.0001 2.82825ZM62.3703 13.8435L64.1566 15.7786L64.0077 15.9275L63.4123 15.3321L63.2634 15.1832H63.1146L59.8398 18.3092C59.8398 18.3092 59.6909 18.458 59.8398 18.458C59.8398 18.458 59.8398 18.6069 59.9886 18.6069L60.584 19.2023L60.2863 19.6489L58.5001 17.8626L58.6489 17.7137L59.2444 18.3092L59.3932 18.458C59.3932 18.458 59.5421 18.458 59.5421 18.3092L62.8169 15.1832L62.9657 15.0344C62.9657 15.0344 62.9657 14.8855 62.8169 14.8855L62.2214 14.2901L62.3703 13.8435ZM57.7558 13.6947C57.4581 13.0992 57.3092 12.6527 57.3092 12.5038C57.3092 12.2061 57.3092 11.9084 57.6069 11.6107C57.7558 11.313 58.0535 11.1641 58.5001 11.1641C58.9466 11.1641 59.2443 11.1641 59.6909 11.4618L60.1375 11.9084C60.2863 12.0573 60.2863 12.2061 60.4352 12.2061H60.8818L60.1375 13.3969H59.9886C60.1375 12.9504 60.1375 12.5038 60.1375 12.355C60.1375 12.0573 59.9886 11.9084 59.6909 11.7595C59.3932 11.4618 59.0955 11.4618 58.7978 11.4618C58.5001 11.6107 58.3512 11.7595 58.2024 11.9084C58.0535 12.0573 58.0535 12.2061 58.0535 12.5038C58.0535 12.6527 58.2024 13.0992 58.5001 13.6947C58.7978 14.1412 58.9466 14.5878 58.9466 14.8855C58.9466 15.1832 58.7978 15.6298 58.6489 15.7786C58.3512 16.0763 58.0535 16.2252 57.7558 16.374H57.6069C57.3092 16.374 57.0115 16.2252 56.565 15.9275L56.1184 15.4809C55.9695 15.3321 55.9695 15.1832 55.8207 15.1832H55.3741L56.1184 13.6947L56.4161 13.8435C56.2672 14.2901 56.1184 14.7366 56.2672 15.0344C56.4161 15.3321 56.565 15.6298 56.7138 15.7786C57.0115 15.9275 57.3092 16.0763 57.4581 16.0763C57.7558 16.0763 58.0535 15.7786 58.2024 15.4809C58.3512 15.3321 58.3512 15.0344 58.3512 14.8855C58.2024 14.4389 58.0535 14.1412 57.7558 13.6947ZM53.8856 8.03817L55.523 8.9313C55.9695 9.22901 56.2672 9.37787 56.4161 9.82443C56.565 10.1221 56.565 10.5687 56.2672 10.8664C56.1184 11.313 55.8207 11.4618 55.523 11.6107C55.2253 11.7595 54.9276 11.7595 54.6298 11.6107L54.3321 14.1412V14.2901C54.3321 14.2901 54.3321 14.4389 54.481 14.4389L54.6298 14.5878L54.481 14.7366L53.7367 14.1412L54.0344 11.1641L53.439 10.8664L52.397 12.8015V12.9504C52.397 12.9504 52.397 13.0992 52.5459 13.0992L52.6947 13.2481L52.5459 13.3969L51.2062 12.6527L51.355 12.5038L51.5039 12.6527H51.6527C51.6527 12.6527 51.8016 12.6527 51.8016 12.5038L54.0344 8.48474V8.33588C54.0344 8.33588 54.0344 8.18703 53.8856 8.18703L53.7367 8.03817H53.8856ZM49.4199 6.10306L52.397 7.2939V8.48474H52.2482C52.2482 8.18703 52.0993 7.88931 51.9505 7.59161L51.5039 7.14504L50.6108 6.84733H50.4619C50.4619 6.84733 50.3131 6.84733 50.3131 6.99619L49.5688 8.78244L50.4619 9.08015C50.6108 9.08015 50.7596 9.22901 50.9085 9.08015C51.0573 9.08015 51.0573 8.9313 51.2062 8.63359L51.355 8.48474L51.6527 8.63359L50.7596 10.4198L50.4619 10.271V10.1221C50.6108 9.97328 50.6108 9.67558 50.4619 9.52672C50.4619 9.37787 50.3131 9.22901 50.1642 9.22901L49.2711 8.9313L48.3779 11.1641V11.313L48.5268 11.4618L49.2711 11.7595C49.5688 11.9084 49.8665 11.9084 50.1642 11.7595C50.4619 11.6107 50.7596 11.4618 50.9085 11.1641L51.0573 11.313L50.3131 12.355L47.1871 11.1641L47.336 10.8664L47.4848 11.0153H47.6337C47.6337 11.0153 47.7825 11.0153 47.7825 10.8664L49.4199 6.54962V6.40077L49.2711 6.25191H49.1222L49.4199 6.10306ZM44.6566 4.91222L45.9963 5.20993V5.50764H45.6985V9.52672L47.336 6.25191C47.336 6.10306 47.4848 5.9542 47.336 5.9542L47.1871 5.80535H47.0382V5.50764L48.2291 5.80535V6.10306H47.7825C47.7825 6.10306 47.7825 6.25191 47.6337 6.40077L45.252 10.8664H44.9543V5.9542V5.65649C44.9543 5.50764 44.8054 5.50764 44.8054 5.50764H44.6566V4.91222ZM40.0421 9.82443H40.9352V9.67558L41.2329 5.20993V5.06107H40.3398V4.76336H43.0192V5.06107H42.126L41.9772 5.20993L41.6795 9.67558V9.82443H42.5726V10.1221L40.0421 9.97328V9.82443ZM35.8741 4.76336L38.2558 8.78244L37.9581 5.06107V4.91222H37.5115V4.61451H38.8512V4.91222H38.4047V5.06107L38.7024 10.1221H38.5535L35.8741 5.50764V9.82443C35.8741 9.97328 35.8741 9.97328 36.023 9.97328H36.4695V10.271L35.1298 10.4198V10.1221H35.5764V9.97328L35.2787 5.50764C35.2787 5.35878 35.2787 5.35878 35.1298 5.35878H34.5344V5.06107L35.8741 4.76336ZM31.4085 5.65649V5.9542H31.2596C31.1108 5.9542 31.1108 5.9542 31.1108 6.10306V6.25191L32.0039 9.82443C32.1527 10.271 32.3016 10.4199 32.4505 10.5687C32.5993 10.7176 32.897 10.7176 33.1947 10.5687C33.4924 10.5687 33.7901 10.271 33.939 10.1221C34.0879 9.82443 34.0879 9.52672 34.0879 9.22901L33.1947 5.65649C33.1947 5.50764 33.1947 5.50764 33.0459 5.50764H32.7482V5.20993L33.939 4.91222V5.20993H33.7901C33.6413 5.20993 33.6413 5.20993 33.6413 5.35878V5.50764L34.2367 9.22901C34.3856 9.67558 34.2367 9.97328 34.0879 10.271C33.7901 10.5687 33.4924 10.7176 33.1947 10.8664H32.7482C32.4505 10.8664 32.3016 10.8664 32.1527 10.7176C31.7062 10.7176 31.5573 10.4198 31.4085 9.82443L30.5153 6.25191C30.5153 6.10306 30.5153 6.10306 30.3665 6.10306H30.0688V5.80535L31.4085 5.65649ZM22.0306 9.37787L25.9008 12.0573L24.1146 8.78244L23.9657 8.63359H23.8169L23.5192 8.78244L23.3703 8.63359L24.5611 8.03817L24.71 8.18703L24.4123 8.33588L24.2634 8.48474V8.63359L26.6451 13.0992L26.4963 13.2481L22.0306 10.271L24.1146 13.9924L24.2634 14.1412H24.4123L24.71 13.9924L24.8589 14.1412L23.668 14.7366L23.5192 14.5878L23.8169 14.4389C23.9657 14.4389 23.9657 14.2901 23.9657 14.2901V14.1412L21.7329 10.1221L21.584 9.97328H21.2863L21.1375 10.1221L20.9886 9.97328L22.0306 9.37787ZM18.7558 11.313L22.7749 14.5878C22.9237 14.5878 22.9237 14.7366 23.0726 14.7366H23.2214L23.3703 14.5878L23.5192 14.7366L22.4772 15.6298L22.3283 15.4809L22.4772 15.3321C22.626 15.3321 22.626 15.1832 22.626 15.1832C22.626 15.1832 22.4772 15.0344 22.4772 14.8855L21.4352 13.9924L20.3932 14.8855L20.8398 16.0763C20.9886 16.2252 20.9886 16.374 21.1375 16.374H21.4352L21.584 16.2252L21.7329 16.374L20.6909 17.1183L20.5421 16.9695L20.6909 16.8206L20.8398 16.6718V16.374L18.7558 11.7595V11.313ZM13.8436 16.2252L14.8856 15.1832L15.0344 15.3321L14.8856 15.4809L14.7367 15.6298V15.7786L16.2253 17.1183L17.565 15.7786L16.0764 14.4389L15.9276 14.2901C15.9276 14.2901 15.7787 14.2901 15.7787 14.4389L15.6298 14.5878L15.481 14.4389L16.3741 13.3969L16.523 13.5458V13.6947L16.3741 13.8435V13.9924L19.6489 17.1183C19.6489 17.1183 19.7978 17.2672 19.7978 17.1183C19.7978 17.1183 19.9466 17.1183 19.9466 16.9695L20.0955 16.8206L20.2443 16.9695L19.3512 18.0115L19.5001 17.8626C19.5001 17.8626 19.5001 17.7137 19.3512 17.7137L17.7138 16.0763L16.3741 17.416L18.0115 19.0534C18.0115 19.0534 18.1604 19.2023 18.1604 19.0534C18.1604 19.0534 18.3092 19.0534 18.3092 18.9046L18.4581 18.7557L18.6069 18.9046L17.565 19.9466L17.4161 19.7977L17.565 19.6489L17.7138 19.5C17.7138 19.5 17.7138 19.3511 17.565 19.3511L14.2901 16.2252L14.1413 16.0763C14.1413 16.0763 13.9924 16.0763 13.9924 16.2252L13.8436 16.374V16.2252ZM11.6108 18.9046L11.7596 19.0534L11.6108 19.2023V19.3511C11.6108 19.3511 11.6108 19.5 11.7596 19.5L14.7367 21.7328C15.0344 22.0305 15.3321 22.0305 15.6298 22.0305C15.7787 22.0305 16.0764 21.8817 16.2253 21.584C16.3741 21.2863 16.523 20.9886 16.3741 20.6908C16.3741 20.3931 16.2253 20.0954 15.9276 19.9466L12.9505 17.7137H12.8016C12.8016 17.7137 12.6527 17.7137 12.6527 17.8626L12.5039 18.1603L12.355 18.0115L13.0993 16.9695L13.2482 17.1183L13.0993 17.2672V17.416C13.0993 17.416 13.0993 17.5649 13.2482 17.5649L16.2253 19.7977C16.523 20.0954 16.8207 20.3931 16.8207 20.6908C16.8207 21.1374 16.8207 21.4351 16.523 21.7328C16.2253 22.0305 16.0764 22.3282 15.6298 22.3282H15.3321C15.0344 22.3282 14.7367 22.1794 14.5879 22.0305L11.6108 19.7977H11.4619C11.4619 19.7977 11.313 19.7977 11.313 19.9466L11.1642 20.0954L11.0153 19.9466L11.6108 18.9046ZM8.93137 23.3702L9.08023 23.5191V23.8168C9.08023 23.8168 9.08023 23.9657 9.22908 23.9657L12.5039 25.1565L10.4199 23.3702L9.8245 23.0725H9.67565C9.67565 23.0725 9.52679 23.0725 9.52679 23.2214V23.3702L9.08023 23.0725L9.67565 22.0305L9.8245 22.1794V22.4771C9.8245 22.4771 9.8245 22.626 9.97336 22.626L13.0993 23.8168L10.5688 21.8817C10.4199 21.8817 10.4199 21.7328 10.4199 21.8817C10.4199 21.8817 10.2711 21.8817 10.2711 22.0305V22.1794L10.1222 22.0305L10.5688 21.1374L10.7176 21.2863V21.584C10.7176 21.584 10.7176 21.7328 10.8665 21.7328L14.8856 24.8588L14.7367 25.0076L11.6108 23.8168L14.2901 26.0496L14.1413 26.1985L9.37794 24.5611H9.22908C9.22908 24.5611 9.08023 24.5611 9.08023 24.7099V24.8588L8.93137 24.7099V23.3702ZM29.1756 68.4733L29.3245 68.6221L29.1756 68.771L28.8779 68.6221H28.5802L28.4314 68.771L28.2825 69.2176L28.1337 69.6641V70.4084L28.2825 70.2595L28.4314 69.9618L28.5802 69.813L28.7291 69.5153V69.813L28.5802 70.1107L28.4314 70.2595V70.855L27.836 71.4504L27.6871 71.7481H27.3894V71.4504L27.5382 71.0038L27.6871 70.5573V70.2595L27.836 69.9618H24.5611L24.2634 69.813H23.9657L23.668 69.5153L23.8169 69.3664L24.1146 69.5153L24.5611 69.6641L25.1566 69.813H26.6451L26.9428 69.6641L27.0917 69.5153L27.2405 69.2176L27.0917 69.0687H26.794L26.4963 69.2176H26.1985L26.0497 69.0687V68.771L26.1985 68.6221L26.3474 68.4733L26.4963 68.1756L26.3474 68.0267H25.4543L25.3054 67.8779L25.1566 67.5802H25.3054L25.4543 67.729H25.6031L26.0497 67.8779L26.6451 68.0267H26.9428L27.3894 68.1756L27.6871 68.3244H28.1337L28.4314 67.8779L28.7291 67.4313L29.0268 66.9847L29.1756 66.5382L29.3245 66.2405L29.6222 66.5382L29.7711 66.687V66.9847L29.6222 67.2824L29.1756 67.729L28.8779 68.1756V68.3244L29.1756 68.4733ZM25.752 69.0687L25.6031 69.2176H25.4543L25.3054 69.0687L25.1566 68.9198L25.4543 68.771H25.752L25.9008 68.6221H26.1985V68.771L25.752 69.0687ZM27.0917 66.9847H28.5802V67.2824L28.4314 67.5802H27.836L27.5382 67.4313L27.2405 67.2824L27.0917 66.9847ZM30.5153 68.4733L30.2176 68.771H29.9199L29.7711 68.6221V68.4733L29.9199 68.3244L30.0688 68.1756V67.8779L30.2176 67.729L30.5153 67.8779V68.4733ZM36.3207 70.7061V71.0038L36.1718 71.1527L36.023 71.4504L35.8741 71.5992L35.7253 71.7481L35.5764 72.0458V72.3435L35.4276 72.6412V72.9389L35.2787 73.2366H34.981L34.8321 73.0878L34.6833 72.7901L34.8321 72.4924L34.981 72.1947V71.8969L35.1298 71.5992V71.3015L35.2787 71.0038L35.4276 70.7061V69.9618H35.5764L35.7253 70.2595V70.4084H36.023L36.3207 70.7061ZM36.3207 69.2176L36.1718 69.3664L36.023 69.6641L35.8741 69.813V69.2176L36.023 68.771V68.4733L36.1718 68.3244L36.3207 68.4733V69.2176ZM38.5535 73.2366L38.4047 73.3855H38.2558L38.1069 73.2366H37.8092L38.1069 73.0878L38.2558 72.7901V72.6412L38.1069 72.3435H38.2558L38.4047 72.4924L38.5535 72.6412L38.7024 72.7901L38.5535 73.2366ZM39.1489 68.771V68.9198L39.0001 69.0687L38.8512 69.2176H38.7024L38.5535 69.3664L38.4047 69.5153L38.2558 69.6641V69.9618H38.5535L38.7024 70.1107L38.8512 70.2595L38.7024 70.4084H38.4047V71.0038L38.2558 71.1527L38.1069 71.3015V71.8969H38.4047L38.5535 71.7481V71.4504H39.0001L39.1489 71.5992V71.7481H38.8512V71.8969L38.7024 72.0458L38.4047 72.1947H37.8092V72.4924L37.6604 72.6412L37.3627 72.7901L37.2138 72.9389H36.9161L37.065 72.7901L37.2138 72.6412L37.3627 72.4924V72.1947H37.065V72.0458H37.5115V71.7481L37.3627 71.4504H37.2138L37.065 71.5992L36.9161 71.7481H36.6184V71.4504L36.7673 71.3015L36.9161 71.1527L37.065 70.855L37.2138 70.5573L37.3627 70.4084V70.1107H37.2138L37.065 69.9618L36.9161 69.813L37.065 69.6641H37.2138L37.3627 69.5153H37.5115L37.6604 69.3664L37.8092 69.2176V68.771H37.9581L38.1069 68.9198V69.2176H38.2558V68.6221L38.4047 68.771V69.0687H38.7024L38.8512 68.771V68.6221L39.0001 68.4733L39.1489 68.3244H39.2978L39.4466 68.4733L39.1489 68.771ZM46.4428 71.7481L45.9963 71.8969H45.8474V71.5992L45.6985 71.4504H45.252V71.8969L45.1031 72.0458L44.8054 72.1947L44.6566 72.3435H44.5077V72.1947L44.6566 72.0458L44.8054 71.8969L45.1031 71.5992L45.252 71.3015V71.0038H45.1031L44.8054 71.1527L44.6566 71.3015H44.5077L44.3589 71.1527L44.21 71.0038L44.3589 70.7061H44.6566L44.8054 70.5573L44.9543 70.4084L45.1031 70.2595V69.6641L44.9543 69.5153V69.3664H45.252L45.4008 69.5153L45.5497 69.6641V70.4084H45.6985L45.8474 70.2595H45.9963L46.1451 70.4084L46.294 70.5573L46.1451 70.7061L45.8474 70.855L45.6985 71.0038L45.5497 71.1527V71.4504H46.4428L46.5917 71.5992L46.7405 71.7481H46.4428ZM50.7596 68.6221V68.3244L50.6108 68.0267L50.4619 67.729H50.7596V67.1336L50.9085 67.2824H51.2062L51.355 67.729V67.8779L51.0573 68.0267V68.1756L51.2062 68.3244V68.4733L51.0573 68.771L50.7596 68.6221ZM53.7367 69.2176L53.8856 69.5153L54.0344 69.813L54.1833 70.1107V70.4084L54.0344 70.5573L53.8856 70.7061H53.2902L52.9924 70.5573V70.4084H53.1413L53.439 70.2595V70.1107L53.2902 69.9618L53.1413 69.813L52.9924 69.9618L52.8436 70.1107L52.6947 70.2595H52.8436L52.6947 70.4084H52.397L52.2482 70.2595V70.1107L52.5459 69.9618L52.8436 69.6641L52.9924 69.3664V69.2176L52.8436 68.9198V68.771L52.9924 68.4733L53.1413 68.3244L53.2902 68.0267L53.439 67.729L53.2902 67.5802L52.9924 67.729V67.8779L52.8436 68.1756L52.6947 68.4733L52.397 68.771L52.2482 69.0687L52.0993 69.2176L51.9505 69.5153L51.8016 69.6641L51.6527 69.813L51.5039 69.9618H51.0573L50.9085 69.813V69.6641L51.0573 69.5153L51.2062 69.3664L51.5039 69.2176L51.9505 68.771L52.397 68.1756L52.5459 67.8779V67.729L52.2482 67.8779H51.9505V67.5802L51.8016 67.4313L51.6527 67.2824V67.1336H51.8016L52.0993 66.9847V66.5382H52.6947L52.8436 66.3893V66.2405L52.9924 66.0916V65.9428H52.6947L52.5459 66.0916L52.397 66.2405L52.2482 66.5382H51.9505L51.8016 66.687H51.6527L51.5039 66.5382L51.6527 66.3893V66.2405L51.5039 66.0916L51.355 65.9428V65.7939H51.9505V64.9008L52.0993 64.7519H52.397L52.5459 64.9008V65.3473L52.397 65.4962V65.645H52.5459L52.6947 65.4962L52.8436 65.3473V65.0496H53.1413L53.439 65.1985L53.5879 65.3473V65.645L53.439 65.9428L53.2902 66.0916V66.2405L53.1413 66.5382V66.8359L52.9924 67.1336V67.4313H53.1413L53.2902 67.2824L53.439 67.1336H53.5879L53.8856 67.2824L53.7367 67.4313V67.729L53.5879 67.8779L53.439 68.0267V68.4733L53.5879 68.6221L53.7367 68.771L53.8856 68.6221H54.0344L54.1833 68.771L54.3321 68.9198L54.1833 69.0687L54.0344 69.2176H53.7367ZM70.855 34.3855C70.855 34.5344 70.5573 36.7672 70.4085 37.958C69.5153 41.8282 66.9848 42.7214 65.794 43.1679V52.2481H66.9848L69.0688 55.5229H70.1108L68.6222 58.3511H59.6909C59.6909 58.3511 58.6489 59.3931 57.6069 60.1374C56.7138 60.7328 55.8207 61.4771 55.6718 61.4771C50.9085 65.0496 45.1031 67.1336 38.7024 67.1336C32.5993 67.1336 26.794 65.1985 22.1795 61.7748C22.0306 61.7748 21.2863 61.0305 20.5421 60.4351C19.5001 59.542 18.6069 58.3511 18.6069 58.3511H18.9047H9.52679L7.88939 55.374H9.08023C9.52679 54.4809 10.5688 52.6947 10.5688 52.5458C10.5688 52.5458 11.6108 52.5458 11.6108 52.3969V43.3168C10.8665 42.8702 10.1222 42.7214 9.22908 41.8282C8.03824 40.4886 7.59168 39.8931 6.99626 37.6603C6.54969 35.874 6.25198 34.2366 6.40084 34.2366C6.40084 34.2366 6.99626 34.9809 7.44282 35.2786C8.33595 36.0229 9.67565 37.0649 10.2711 37.3626C11.4619 38.1069 11.9085 38.1069 11.9085 38.1069V37.5115C12.6527 23.2214 24.5611 11.7595 39.0001 11.7595C53.7367 11.7595 65.6451 23.5191 66.0917 38.1069C66.2405 37.958 67.2825 37.3626 67.5802 37.2137C67.8779 37.0649 69.0688 36.0229 69.2176 35.874C69.5153 35.874 71.0039 34.3855 70.855 34.3855ZM68.0268 21.1374L68.1756 20.9886L68.9199 22.3282H68.6222V22.1794C68.6222 22.0305 68.4734 22.0305 68.4734 22.0305C68.4734 22.0305 68.3245 22.0305 68.3245 22.1794L66.6871 23.9657L69.2176 23.6679C69.3665 23.6679 69.3665 23.5191 69.3665 23.5191V23.0725L69.5153 22.9237L70.1108 24.1145L69.9619 24.2634V24.1145C69.9619 23.9657 69.8131 23.9657 69.8131 23.9657H69.3665L66.6871 24.2634L65.0497 25.1565L64.9008 25.3053V25.4542L65.0497 25.7519L64.9008 25.9008L64.1566 24.4122L64.3054 24.2634L64.4543 24.5611C64.4543 24.7099 64.6031 24.7099 64.6031 24.7099H64.752L66.2405 23.9657L68.1756 21.7328C68.1756 21.584 68.3245 21.584 68.3245 21.4351C68.0268 21.2863 68.0268 21.2863 68.0268 21.1374ZM65.4963 17.2672L67.2825 19.7977L66.3894 20.6908L66.2405 20.542C66.5382 20.0954 66.6871 19.9466 66.6871 19.7977C66.6871 19.6489 66.6871 19.5 66.5382 19.2023L66.3894 18.9046L66.0917 19.0534L62.5192 21.584L62.3703 21.7328V21.8817L62.5192 22.1794L62.3703 22.3282L61.3283 20.9886L61.4772 20.8397L61.626 21.1374C61.626 21.2863 61.7749 21.2863 61.7749 21.2863H61.9237L65.4963 18.6069L65.6451 18.458L65.4963 18.3092C65.3474 18.0115 65.1985 18.0115 65.0497 17.8626C64.9008 17.8626 64.6031 17.8626 64.1566 18.0115L64.0077 17.8626L65.4963 17.2672Z" fill="#04705E"/>
<path d="M27.2404 68.3245H26.9427L26.7938 68.4733L26.9427 68.6222L27.0915 68.771L27.2404 68.9199L27.3892 68.771L27.5381 68.6222V68.4733L27.2404 68.3245ZM37.6602 70.2596H37.8091L37.9579 70.1107L37.8091 69.813H37.6602L37.5114 69.9619H37.3625L37.5114 70.1107L37.6602 70.2596ZM27.8358 68.4733V68.6222L27.687 68.9199L27.5381 69.0687L27.687 69.3664L27.8358 69.5153V69.3664L27.9847 69.2176L28.1335 68.9199V68.4733H27.9847H27.8358Z" fill="black"/>
</svg>
