<svg width="102" height="34" viewBox="0 0 102 34" fill="none" xmlns="http://www.w3.org/2000/svg">
<g clip-path="url(#clip0_28_60)">
<path d="M15.7887 33.9172C7.08281 33.9172 0 26.7536 0 17.9484C0 9.14308 7.08281 1.97943 15.7887 1.97943C20.6273 1.97943 22.8466 3.12814 23.756 3.65463C24.6654 4.18112 25.8381 4.61189 27.7784 6.95717C30.3928 10.1173 30.2593 12.4554 30.3928 14.6152C30.3928 15.737 30.0883 18.0135 29.3874 19.6557C28.7882 21.0596 27.7412 22.3847 27.0096 23.1709C25.9017 24.3614 25.3214 24.7778 24.825 24.2756C24.3285 23.7735 24.5271 23.9744 24.1299 23.5727C23.6334 23.0705 23.5341 23.1374 24.3285 22.4679C24.9243 21.9657 25.9173 20.7605 26.4137 19.6557C27.0887 18.154 27.4471 16.9441 27.5062 15.4375C27.5062 8.39365 22.7531 5.17321 15.7887 5.17321C8.8243 5.17321 3.15774 10.9045 3.15774 17.9484C3.15774 24.9922 8.8243 30.7234 15.7887 30.7234C17.7623 30.7234 19.6517 30.2763 21.4037 29.3954C21.7787 29.2068 22.2124 29.1765 22.6093 29.3114C23.0064 29.4462 23.3342 29.735 23.5207 30.1142C23.7072 30.4936 23.7371 30.9322 23.6038 31.3337C23.4705 31.7353 23.185 32.0667 22.8099 32.2554C20.6294 33.3549 18.2252 33.9239 15.7887 33.9172Z" fill="#10CFF1"/>
<path d="M11.5429 26.3818C10.7236 26.3818 9.44495 26.3818 9.44495 26.3818H7.84652L8.24612 25.3714C8.24612 25.3714 8.47695 24.872 8.64573 24.563C8.98592 23.9404 9.23708 23.6271 9.64475 23.0474C10.3369 22.0631 11.5429 20.6224 11.5429 20.6224L12.1423 20.0161L14.6399 17.389L17.7368 14.3578L17.8367 14.1859V13.9536L17.7368 13.8526L17.537 13.7515C17.537 13.7515 16.0867 13.8307 14.54 13.7515C12.9933 13.6723 12.8199 13.5678 11.7427 13.7515C11.5465 13.7849 11.4371 13.8075 11.2432 13.8526C11.0467 13.8982 10.7437 13.9839 10.7437 13.9839L10.2442 14.1557L9.74465 14.3578L8.64573 14.8629L7.54681 15.3681L9.94445 10.4171L11.5429 10.8213L13.3411 11.1244L14.8396 11.3265H16.3382H17.8367L19.535 11.2254L20.534 11.1244L21.0335 11.0234L21.4331 10.9223C21.4331 10.9223 21.7387 10.8659 21.9327 10.8213C22.0896 10.7852 22.3323 10.7202 22.3323 10.7202L22.9317 10.5182L23.631 10.215C23.631 10.215 23.5347 10.6548 23.4312 10.9223C23.2848 11.3006 23.1404 11.4846 22.9317 11.8317C22.7124 12.1964 22.5885 12.402 22.3323 12.7411C22.0136 13.1629 21.4331 13.7515 21.4331 13.7515C21.4331 13.7515 20.7633 14.4289 20.3343 14.8629C18.1494 17.0727 16.753 18.1508 14.7397 20.5213C14.3426 20.9888 14.0957 21.2328 13.7408 21.7338C13.5768 21.9652 13.4683 22.0863 13.3411 22.3401C13.2461 22.5297 13.2042 22.6425 13.1413 22.8453C13.0932 23.0006 13.0414 23.0868 13.0414 23.2495C13.0414 23.4122 13.0757 23.5746 13.1413 23.6537C13.2069 23.7327 13.5048 23.874 13.7034 23.9744C13.9021 24.0748 14.5832 24.1425 14.6399 24.1589C14.6964 24.1753 15.9873 24.3609 15.9873 24.3609L17.2782 24.4766C17.2782 24.4766 18.2038 24.4766 18.4361 24.4766C18.6684 24.4766 19.0127 24.4185 19.6349 24.3609C20.2573 24.3033 21.6016 24.0958 22.7397 23.5727C23.7581 23.1046 25.1414 21.8146 25.1414 21.8146L25.7187 24.2757C25.7187 24.2757 26.5131 23.874 24.0306 25.4809C23.276 25.9341 22.2474 26.2819 21.5481 26.4852C20.8488 26.6885 19.4628 26.7865 18.6684 26.7865C17.874 26.7865 17.5356 26.7641 16.6824 26.6862C15.8068 26.6062 14.9498 26.5421 14.44 26.4829C13.9346 26.4241 13.6496 26.4036 13.1413 26.3818C12.5177 26.355 12.1671 26.3818 11.5429 26.3818Z" fill="#10CFF1"/>
<path d="M27.0096 31.1051C28.4355 31.1051 29.5914 29.936 29.5914 28.4938C29.5914 27.0517 28.4355 25.8826 27.0096 25.8826C25.5837 25.8826 24.4278 27.0517 24.4278 28.4938C24.4278 29.936 25.5837 31.1051 27.0096 31.1051Z" fill="#10CFF1"/>
<path d="M43.1715 6.75342H39.9481C39.6302 6.75342 39.3724 7.01407 39.3724 7.33561V33.3014C39.3724 33.6229 39.6302 33.8836 39.9481 33.8836H43.1715C43.4894 33.8836 43.7472 33.6229 43.7472 33.3014V7.33561C43.7472 7.01407 43.4894 6.75342 43.1715 6.75342Z" fill="#10CFF1"/>
<path d="M68.3837 29.9247H39.9481C39.6302 29.9247 39.3724 30.1853 39.3724 30.5069V33.3014C39.3724 33.6229 39.6302 33.8836 39.9481 33.8836H68.3837C68.7016 33.8836 68.9593 33.6229 68.9593 33.3014V30.5069C68.9593 30.1853 68.7016 29.9247 68.3837 29.9247Z" fill="#10CFF1"/>
<path d="M62.2822 6.75342H47.7765C47.4586 6.75342 47.2009 7.01407 47.2009 7.33561V9.66438C47.2009 9.98591 47.4586 10.2466 47.7765 10.2466H62.2822C62.6001 10.2466 62.8578 9.98591 62.8578 9.66438V7.33561C62.8578 7.01407 62.6001 6.75342 62.2822 6.75342Z" fill="#10CFF1"/>
<path d="M67.4904 3.04574C67.3823 2.89153 67.4913 2.6781 67.6782 2.6781H78.9752C79.293 2.6781 79.5508 2.93876 79.5508 3.26029V5.12331C79.5508 5.44484 79.293 5.7055 78.9752 5.7055H69.6537C69.4672 5.7055 69.2922 5.61407 69.1843 5.46021L67.4904 3.04574Z" fill="#10CFF1"/>
<path d="M78.6298 10.2466H68.614C68.2961 10.2466 68.0384 10.5072 68.0384 10.8288V13.1575C68.0384 13.4791 68.2961 13.7397 68.614 13.7397H78.6298C78.9477 13.7397 79.2054 13.4791 79.2054 13.1575V10.8288C79.2054 10.5072 78.9477 10.2466 78.6298 10.2466Z" fill="#10CFF1"/>
<path d="M78.2844 17.4658H68.614C68.2961 17.4658 68.0384 17.7264 68.0384 18.048V20.3767C68.0384 20.6983 68.2961 20.9589 68.614 20.9589H78.2844C78.6023 20.9589 78.8601 20.6983 78.8601 20.3767V18.048C78.8601 17.7264 78.6023 17.4658 78.2844 17.4658Z" fill="#10CFF1"/>
<path d="M96.5891 2.6781H82.6591C82.3412 2.6781 82.0835 2.93876 82.0835 3.26029V5.00687C82.0835 5.3284 82.3412 5.58906 82.6591 5.58906H96.5891C96.907 5.58906 97.1648 5.3284 97.1648 5.00687V3.26029C97.1648 2.93876 96.907 2.6781 96.5891 2.6781Z" fill="#10CFF1"/>
<path d="M96.3589 8.5H82.6591C82.3412 8.5 82.0835 8.76066 82.0835 9.08219V11.1781C82.0835 11.4996 82.3412 11.7603 82.6591 11.7603H96.3589C96.6768 11.7603 96.9345 11.4996 96.9345 11.1781V9.08219C96.9345 8.76066 96.6768 8.5 96.3589 8.5Z" fill="#10CFF1"/>
<path d="M96.9345 13.9726H90.1422C89.8243 13.9726 89.5666 14.2333 89.5666 14.5548V16.8836C89.5666 17.2051 89.8243 17.4657 90.1422 17.4657H96.9345C97.2524 17.4657 97.5102 17.2051 97.5102 16.8836V14.5548C97.5102 14.2333 97.2524 13.9726 96.9345 13.9726Z" fill="#10CFF1"/>
<path d="M96.9346 20.9589H91.6389C91.3209 20.9589 91.0632 21.2196 91.0632 21.5411V23.8699C91.0632 24.1914 91.3209 24.4521 91.6389 24.4521H96.9346C97.2525 24.4521 97.5102 24.1914 97.5102 23.8699V21.5411C97.5102 21.2196 97.2525 20.9589 96.9346 20.9589Z" fill="#10CFF1"/>
<path d="M89.6817 20.9589H82.6591C82.3412 20.9589 82.0835 21.2196 82.0835 21.5411V23.8699C82.0835 24.1914 82.3412 24.4521 82.6591 24.4521H89.6817C89.9996 24.4521 90.2573 24.1914 90.2573 23.8699V21.5411C90.2573 21.2196 89.9996 20.9589 89.6817 20.9589Z" fill="#10CFF1"/>
<path d="M96.9345 30.1575H80.1264C79.8085 30.1575 79.5508 30.4182 79.5508 30.7397V33.3014C79.5508 33.6229 79.8085 33.8836 80.1264 33.8836H96.9345C97.2524 33.8836 97.5102 33.6229 97.5102 33.3014V30.7397C97.5102 30.4182 97.2524 30.1575 96.9345 30.1575Z" fill="#10CFF1"/>
<path d="M87.6095 13.9726H82.6591C82.3412 13.9726 82.0835 14.2333 82.0835 14.5548V16.8836C82.0835 17.2051 82.3412 17.4657 82.6591 17.4657H87.6095C87.9274 17.4657 88.1851 17.2051 88.1851 16.8836V14.5548C88.1851 14.2333 87.9274 13.9726 87.6095 13.9726Z" fill="#10CFF1"/>
<path d="M62.2822 13.5068H47.7765C47.4586 13.5068 47.2009 13.7675 47.2009 14.089V16.4178C47.2009 16.7393 47.4586 17 47.7765 17H62.2822C62.6001 17 62.8578 16.7393 62.8578 16.4178V14.089C62.8578 13.7675 62.6001 13.5068 62.2822 13.5068Z" fill="#10CFF1"/>
<path d="M62.2822 19.9109H48.0068C47.6889 19.9109 47.4312 20.1716 47.4312 20.4931V22.4726C47.4312 22.7941 47.6889 23.0548 48.0068 23.0548H62.2822C62.6001 23.0548 62.8578 22.7941 62.8578 22.4726V20.4931C62.8578 20.1716 62.6001 19.9109 62.2822 19.9109Z" fill="#10CFF1"/>
<path d="M62.2822 6.75342H59.9797C59.6618 6.75342 59.4041 7.01407 59.4041 7.33561V27.363C59.4041 27.6845 59.6618 27.9452 59.9797 27.9452H62.2822C62.6001 27.9452 62.8578 27.6845 62.8578 27.363V7.33561C62.8578 7.01407 62.6001 6.75342 62.2822 6.75342Z" fill="#10CFF1"/>
<path d="M49.8488 6.75342H47.7765C47.4586 6.75342 47.2009 7.01407 47.2009 7.33561V16.4178C47.2009 16.7393 47.4586 17 47.7765 17H49.8488C50.1667 17 50.4244 16.7393 50.4244 16.4178V7.33561C50.4244 7.01407 50.1667 6.75342 49.8488 6.75342Z" fill="#10CFF1"/>
<path d="M75.9819 3.26029C75.9819 2.93876 76.2397 2.6781 76.5576 2.6781H78.9752C79.293 2.6781 79.5508 2.93876 79.5508 3.26029V13.1576C79.5508 13.479 79.293 13.7397 78.9752 13.7397H76.5576C76.2397 13.7397 75.9819 13.479 75.9819 13.1576V3.26029Z" fill="#10CFF1"/>
<path d="M75.9819 3.26029C75.9819 2.93876 76.2397 2.6781 76.5576 2.6781H78.9752C79.293 2.6781 79.5508 2.93876 79.5508 3.26029V13.1576C79.5508 13.479 79.293 13.7397 78.9752 13.7397H76.5576C76.2397 13.7397 75.9819 13.479 75.9819 13.1576V3.26029Z" fill="#10CFF1"/>
<path d="M82.0835 3.26029C82.0835 2.93876 82.3413 2.6781 82.6591 2.6781H83.8679H85.0767C85.3946 2.6781 85.6523 2.93876 85.6523 3.26029V11.1781C85.6523 11.4996 85.3946 11.7603 85.0767 11.7603H82.6591C82.3413 11.7603 82.0835 11.4996 82.0835 11.1781V3.26029Z" fill="#10CFF1"/>
<path d="M82.0835 3.26029C82.0835 2.93876 82.3413 2.6781 82.6591 2.6781H83.8679H85.0767C85.3946 2.6781 85.6523 2.93876 85.6523 3.26029V11.1781C85.6523 11.4996 85.3946 11.7603 85.0767 11.7603H82.6591C82.3413 11.7603 82.0835 11.4996 82.0835 11.1781V3.26029Z" fill="#10CFF1"/>
<path d="M93.7111 3.49314C93.7111 3.17161 93.9688 2.91095 94.2867 2.91095H96.5892C96.907 2.91095 97.1648 3.17161 97.1648 3.49314V11.1781C97.1648 11.4996 96.907 11.7603 96.5892 11.7603H94.2867C93.9688 11.7603 93.7111 11.4996 93.7111 11.1781V3.49314Z" fill="#10CFF1"/>
<path d="M93.7111 3.49314C93.7111 3.17161 93.9688 2.91095 94.2867 2.91095H96.5892C96.907 2.91095 97.1648 3.17161 97.1648 3.49314V11.1781C97.1648 11.4996 96.907 11.7603 96.5892 11.7603H94.2867C93.9688 11.7603 93.7111 11.4996 93.7111 11.1781V3.49314Z" fill="#10CFF1"/>
<path d="M94.1716 14.5548C94.1716 14.2333 94.4293 13.9726 94.7472 13.9726H96.9345C97.2524 13.9726 97.5102 14.2333 97.5102 14.5548V23.8699C97.5102 24.1913 97.2524 24.452 96.9345 24.452H94.7472C94.4293 24.452 94.1716 24.1913 94.1716 23.8699V14.5548Z" fill="#10CFF1"/>
<path d="M94.1716 14.5548C94.1716 14.2333 94.4293 13.9726 94.7472 13.9726H96.9345C97.2524 13.9726 97.5102 14.2333 97.5102 14.5548V23.8699C97.5102 24.1913 97.2524 24.452 96.9345 24.452H94.7472C94.4293 24.452 94.1716 24.1913 94.1716 23.8699V14.5548Z" fill="#10CFF1"/>
<path d="M82.0835 14.9041C82.0835 14.5826 82.3413 14.3219 82.6591 14.3219H84.7314C85.0492 14.3219 85.307 14.5826 85.307 14.9041V23.8698C85.307 24.1913 85.0492 24.452 84.7314 24.452H82.6591C82.3413 24.452 82.0835 24.1913 82.0835 23.8698V14.9041Z" fill="#10CFF1"/>
<path d="M82.0835 14.9041C82.0835 14.5826 82.3413 14.3219 82.6591 14.3219H84.7314C85.0492 14.3219 85.307 14.5826 85.307 14.9041V23.8698C85.307 24.1913 85.0492 24.452 84.7314 24.452H82.6591C82.3413 24.452 82.0835 24.1913 82.0835 23.8698V14.9041Z" fill="#10CFF1"/>
<path d="M87.0339 21.8904C87.0339 21.5689 87.2916 21.3082 87.6095 21.3082H89.6817C89.9996 21.3082 90.2574 21.5689 90.2574 21.8904V30.8562C90.2574 31.1777 89.9996 31.4384 89.6817 31.4384H87.6095C87.2916 31.4384 87.0339 31.1777 87.0339 30.8562V21.8904Z" fill="#10CFF1"/>
<path d="M87.0339 21.8904C87.0339 21.5689 87.2916 21.3082 87.6095 21.3082H89.6817C89.9996 21.3082 90.2574 21.5689 90.2574 21.8904V30.8562C90.2574 31.1777 89.9996 31.4384 89.6817 31.4384H87.6095C87.2916 31.4384 87.0339 31.1777 87.0339 30.8562V21.8904Z" fill="#10CFF1"/>
<path d="M89.5666 9.19865C89.5666 8.87711 89.8244 8.61646 90.1422 8.61646H92.3296C92.6474 8.61646 92.9052 8.87711 92.9052 9.19865V16.4178C92.9052 16.7393 92.6474 17 92.3296 17H90.1422C89.8244 17 89.5666 16.7393 89.5666 16.4178V9.19865Z" fill="#10CFF1"/>
<path d="M89.5666 9.19865C89.5666 8.87711 89.8244 8.61646 90.1422 8.61646H92.3296C92.6474 8.61646 92.9052 8.87711 92.9052 9.19865V16.4178C92.9052 16.7393 92.6474 17 92.3296 17H90.1422C89.8244 17 89.5666 16.7393 89.5666 16.4178V9.19865Z" fill="#10CFF1"/>
<path d="M71.1467 10.2466H68.614C68.2961 10.2466 68.0384 10.5072 68.0384 10.8288V20.1438C68.0384 20.4654 68.2961 20.726 68.614 20.726H71.1467C71.4646 20.726 71.7224 20.4654 71.7224 20.1438V10.8288C71.7224 10.5072 71.4646 10.2466 71.1467 10.2466Z" fill="#10CFF1"/>
<path d="M99.5634 30.1892C100.909 30.1892 102 29.0859 102 27.7248C102 26.3637 100.909 25.2604 99.5634 25.2604C98.2177 25.2604 97.1268 26.3637 97.1268 27.7248C97.1268 29.0859 98.2177 30.1892 99.5634 30.1892Z" fill="#10CFF1"/>
<path d="M45.3489 5.75033C46.9189 5.75033 48.1916 4.46308 48.1916 2.87517C48.1916 1.28726 46.9189 0 45.3489 0C43.7789 0 42.5062 1.28726 42.5062 2.87517C42.5062 4.46308 43.7789 5.75033 45.3489 5.75033Z" fill="#10CFF1"/>
<path d="M75.6349 18.0747C75.6202 17.7391 75.8844 17.4563 76.2165 17.4563H78.3681C78.648 17.4563 78.886 17.6582 78.9246 17.9385C79.0832 19.0946 79.4057 22.0876 78.8522 24.2335C78.4549 25.7737 77.5324 28.4435 75.8065 30.4972C74.7803 31.7183 73.1668 32.7221 71.847 33.167C69.6796 33.8977 67.2551 33.9525 66.0369 33.9232C65.6463 33.9139 65.4033 33.5124 65.5549 33.1481L66.7239 30.3401C66.8138 30.1242 67.0223 29.9837 67.2538 29.9753C67.8721 29.9528 69.0965 29.871 69.8165 29.5731C71.7926 28.7554 72.7606 28.4435 73.6744 27.006C74.3977 25.868 75.4761 23.5265 75.6034 22.1797C75.7298 20.8421 75.6764 19.0166 75.6349 18.0747Z" fill="#10CFF1"/>
</g>
<defs>
<clipPath id="clip0_28_60">
<rect width="102" height="34" fill="white"/>
</clipPath>
</defs>
</svg>
